<svg xmlns="http://www.w3.org/2000/svg" width="970" height="890" viewBox="0 0 970 890">
  <g transform="translate(-170,-70)">
    <path d="M 1034.0 850.0 L 1034.0 848.0 L 1035.0 847.0 L 1035.0 841.0 L 1036.0 839.0 L 1032.0 830.0 L 1026.0 822.0 L 1021.0 812.0 L 1021.0 808.0 L 1019.0 806.0 L 1019.0 795.0 L 1017.0 791.0 L 1018.0 777.0 L 1019.0 776.0 L 1021.0 765.0 L 1024.0 759.0 L 1024.0 757.0 L 1030.0 741.0 L 1030.0 736.0 L 1031.0 735.0 L 1033.0 721.0 L 1035.0 716.0 L 1036.0 702.0 L 1037.0 701.0 L 1037.0 695.0 L 1038.0 694.0 L 1038.0 681.0 L 1037.0 680.0 L 1037.0 675.0 L 1036.0 674.0 L 1036.0 670.0 L 1035.0 669.0 L 1035.0 665.0 L 1034.0 664.0 L 1034.0 652.0 L 1035.0 651.0 L 1035.0 647.0 L 1033.0 643.0 L 1033.0 638.0 L 1032.0 637.0 L 1032.0 595.0 L 1031.0 594.0 L 1032.0 591.0 L 1031.0 590.0 L 1031.0 587.0 L 1030.0 586.0 L 1030.0 583.0 L 1029.0 582.0 L 1029.0 579.0 L 1027.0 574.0 L 1027.0 570.0 L 1025.0 565.0 L 1025.0 554.0 L 1024.0 553.0 L 1024.0 549.0 L 1023.0 548.0 L 1022.0 534.0 L 1021.0 533.0 L 1020.0 527.0 L 1016.0 517.0 L 1015.0 500.0 L 1012.0 494.0 L 1011.0 486.0 L 1006.0 473.0 L 1005.0 465.0 L 1002.0 459.0 L 1002.0 453.0 L 1001.0 452.0 L 1000.0 447.0 L 997.0 443.0 L 995.0 438.0 L 991.0 433.0 L 992.0 426.0 L 989.0 418.0 L 989.0 410.0 L 987.0 406.0 L 987.0 370.0 L 988.0 369.0 L 988.0 362.0 L 989.0 361.0 L 989.0 341.0 L 991.0 337.0 L 991.0 332.0 L 992.0 331.0 L 992.0 328.0 L 994.0 323.0 L 994.0 318.0 L 997.0 312.0 L 997.0 309.0 L 1000.0 302.0 L 1006.0 298.0 L 1011.0 298.0 L 1012.0 297.0 L 1019.0 296.0 L 1023.0 294.0 L 1027.0 294.0 L 1035.0 291.0 L 1038.0 291.0 L 1050.0 285.0 L 1057.0 284.0 L 1070.0 279.0 L 1073.0 279.0 L 1079.0 276.0 L 1081.0 276.0 L 1082.0 275.0 L 1093.0 272.0 L 1096.0 270.0 L 1101.0 269.0 L 1104.0 267.0 L 1110.0 266.0 L 1113.0 264.0 L 1116.0 260.0 L 1116.0 253.0 L 1117.0 251.0 L 1116.0 250.0 L 1115.0 239.0 L 1114.0 238.0 L 1113.0 213.0 L 1112.0 212.0 L 1112.0 207.0 L 1110.0 202.0 L 1109.0 193.0 L 1107.0 188.0 L 1107.0 184.0 L 1106.0 183.0 L 1106.0 180.0 L 1105.0 179.0 L 1105.0 176.0 L 1103.0 171.0 L 1102.0 161.0 L 1101.0 160.0 L 1101.0 157.0 L 1099.0 152.0 L 1098.0 142.0 L 1097.0 141.0 L 1097.0 135.0 L 1094.0 132.0 L 1091.0 132.0 L 1090.0 131.0 L 1090.0 129.0 L 1086.0 121.0 L 1078.0 112.0 L 1078.0 111.0 L 1071.0 105.0 L 1061.0 100.0 L 1054.0 99.0 L 1051.0 97.0 L 1032.0 97.0 L 1031.0 96.0 L 1027.0 96.0 L 1024.0 98.0 L 1021.0 98.0 L 1017.0 101.0 L 1015.0 101.0 L 1014.0 102.0 L 1009.0 102.0 L 1006.0 104.0 L 1004.0 104.0 L 1001.0 107.0 L 1002.0 111.0 L 1004.0 113.0 L 1008.0 113.0 L 1011.0 115.0 L 1012.0 120.0 L 1014.0 121.0 L 1019.0 121.0 L 1020.0 120.0 L 1023.0 123.0 L 1027.0 123.0 L 1028.0 124.0 L 1034.0 125.0 L 1046.0 133.0 L 1050.0 133.0 L 1051.0 134.0 L 1059.0 136.0 L 1062.0 138.0 L 1060.0 142.0 L 1060.0 152.0 L 1062.0 157.0 L 1061.0 158.0 L 1062.0 159.0 L 1062.0 167.0 L 1063.0 168.0 L 1063.0 180.0 L 1065.0 184.0 L 1065.0 213.0 L 1063.0 217.0 L 1063.0 225.0 L 1062.0 226.0 L 1060.0 226.0 L 1059.0 227.0 L 1054.0 227.0 L 1053.0 228.0 L 1043.0 228.0 L 1038.0 230.0 L 1027.0 231.0 L 1026.0 232.0 L 1022.0 232.0 L 1021.0 233.0 L 1020.0 232.0 L 1012.0 232.0 L 1011.0 233.0 L 1008.0 231.0 L 1002.0 231.0 L 996.0 228.0 L 989.0 228.0 L 988.0 227.0 L 979.0 227.0 L 978.0 228.0 L 973.0 228.0 L 968.0 230.0 L 965.0 230.0 L 962.0 228.0 L 956.0 228.0 L 955.0 227.0 L 955.0 221.0 L 950.0 214.0 L 952.0 210.0 L 953.0 197.0 L 954.0 196.0 L 954.0 186.0 L 955.0 185.0 L 955.0 177.0 L 954.0 176.0 L 954.0 162.0 L 951.0 155.0 L 949.0 145.0 L 946.0 140.0 L 945.0 136.0 L 942.0 133.0 L 934.0 133.0 L 933.0 134.0 L 929.0 134.0 L 928.0 133.0 L 915.0 133.0 L 914.0 132.0 L 892.0 132.0 L 891.0 133.0 L 879.0 133.0 L 878.0 134.0 L 867.0 136.0 L 862.0 139.0 L 860.0 139.0 L 856.0 141.0 L 846.0 151.0 L 845.0 154.0 L 840.0 161.0 L 840.0 163.0 L 838.0 167.0 L 838.0 171.0 L 837.0 172.0 L 837.0 177.0 L 836.0 178.0 L 836.0 190.0 L 837.0 191.0 L 838.0 198.0 L 840.0 201.0 L 840.0 206.0 L 841.0 207.0 L 842.0 216.0 L 849.0 229.0 L 849.0 231.0 L 851.0 235.0 L 855.0 239.0 L 859.0 241.0 L 854.0 248.0 L 854.0 252.0 L 846.0 256.0 L 844.0 255.0 L 834.0 256.0 L 832.0 258.0 L 821.0 263.0 L 805.0 276.0 L 800.0 278.0 L 795.0 283.0 L 789.0 285.0 L 782.0 291.0 L 778.0 293.0 L 776.0 293.0 L 764.0 300.0 L 757.0 302.0 L 753.0 305.0 L 748.0 306.0 L 740.0 311.0 L 728.0 312.0 L 721.0 317.0 L 719.0 317.0 L 717.0 319.0 L 710.0 317.0 L 709.0 318.0 L 707.0 318.0 L 705.0 320.0 L 695.0 319.0 L 694.0 320.0 L 683.0 320.0 L 682.0 321.0 L 662.0 321.0 L 661.0 320.0 L 656.0 320.0 L 655.0 319.0 L 651.0 319.0 L 650.0 318.0 L 636.0 318.0 L 632.0 315.0 L 630.0 315.0 L 628.0 313.0 L 626.0 313.0 L 622.0 311.0 L 615.0 311.0 L 614.0 312.0 L 612.0 312.0 L 611.0 311.0 L 600.0 316.0 L 598.0 314.0 L 598.0 312.0 L 597.0 311.0 L 597.0 295.0 L 596.0 294.0 L 593.0 294.0 L 590.0 296.0 L 584.0 303.0 L 579.0 312.0 L 578.0 318.0 L 576.0 320.0 L 563.0 320.0 L 562.0 319.0 L 556.0 319.0 L 555.0 318.0 L 551.0 318.0 L 550.0 317.0 L 548.0 318.0 L 547.0 317.0 L 542.0 317.0 L 541.0 316.0 L 540.0 317.0 L 539.0 316.0 L 534.0 316.0 L 533.0 315.0 L 525.0 315.0 L 524.0 314.0 L 510.0 313.0 L 509.0 312.0 L 504.0 312.0 L 503.0 311.0 L 493.0 311.0 L 492.0 310.0 L 485.0 310.0 L 484.0 309.0 L 467.0 308.0 L 466.0 307.0 L 461.0 307.0 L 460.0 306.0 L 455.0 306.0 L 454.0 305.0 L 445.0 305.0 L 444.0 304.0 L 439.0 304.0 L 438.0 303.0 L 428.0 303.0 L 427.0 302.0 L 422.0 302.0 L 421.0 301.0 L 413.0 301.0 L 412.0 300.0 L 407.0 300.0 L 406.0 299.0 L 398.0 299.0 L 397.0 298.0 L 383.0 297.0 L 382.0 296.0 L 377.0 296.0 L 376.0 295.0 L 374.0 296.0 L 373.0 295.0 L 366.0 295.0 L 365.0 294.0 L 358.0 294.0 L 357.0 293.0 L 349.0 293.0 L 348.0 292.0 L 343.0 292.0 L 342.0 291.0 L 334.0 291.0 L 333.0 290.0 L 326.0 290.0 L 325.0 289.0 L 318.0 289.0 L 317.0 288.0 L 309.0 288.0 L 308.0 287.0 L 300.0 287.0 L 299.0 286.0 L 293.0 286.0 L 292.0 285.0 L 275.0 284.0 L 274.0 283.0 L 269.0 283.0 L 268.0 282.0 L 259.0 282.0 L 258.0 281.0 L 254.0 281.0 L 253.0 280.0 L 235.0 279.0 L 234.0 278.0 L 230.0 278.0 L 229.0 277.0 L 221.0 277.0 L 220.0 276.0 L 216.0 276.0 L 215.0 275.0 L 210.0 276.0 L 210.0 278.0 L 211.0 279.0 L 224.0 280.0 L 225.0 281.0 L 232.0 281.0 L 233.0 282.0 L 238.0 282.0 L 239.0 283.0 L 247.0 283.0 L 248.0 284.0 L 254.0 284.0 L 255.0 285.0 L 261.0 285.0 L 262.0 286.0 L 270.0 286.0 L 271.0 287.0 L 278.0 287.0 L 279.0 288.0 L 293.0 289.0 L 294.0 290.0 L 311.0 291.0 L 312.0 292.0 L 327.0 293.0 L 328.0 294.0 L 342.0 295.0 L 343.0 296.0 L 361.0 297.0 L 362.0 298.0 L 368.0 298.0 L 369.0 299.0 L 376.0 299.0 L 377.0 300.0 L 385.0 300.0 L 386.0 301.0 L 392.0 301.0 L 393.0 302.0 L 400.0 302.0 L 401.0 303.0 L 416.0 304.0 L 417.0 305.0 L 422.0 305.0 L 423.0 306.0 L 430.0 306.0 L 431.0 307.0 L 438.0 307.0 L 439.0 308.0 L 446.0 308.0 L 447.0 309.0 L 454.0 309.0 L 455.0 310.0 L 463.0 310.0 L 464.0 311.0 L 479.0 312.0 L 480.0 313.0 L 486.0 313.0 L 487.0 314.0 L 496.0 314.0 L 497.0 315.0 L 511.0 316.0 L 512.0 317.0 L 517.0 317.0 L 518.0 318.0 L 526.0 318.0 L 527.0 319.0 L 533.0 319.0 L 534.0 320.0 L 541.0 320.0 L 542.0 321.0 L 550.0 321.0 L 551.0 322.0 L 556.0 322.0 L 557.0 323.0 L 571.0 324.0 L 576.0 326.0 L 576.0 337.0 L 577.0 338.0 L 577.0 344.0 L 580.0 350.0 L 580.0 352.0 L 582.0 354.0 L 583.0 357.0 L 591.0 364.0 L 596.0 364.0 L 597.0 363.0 L 599.0 363.0 L 605.0 356.0 L 607.0 358.0 L 610.0 358.0 L 613.0 360.0 L 617.0 360.0 L 620.0 358.0 L 625.0 357.0 L 631.0 353.0 L 638.0 353.0 L 639.0 354.0 L 650.0 354.0 L 651.0 355.0 L 654.0 355.0 L 659.0 357.0 L 663.0 357.0 L 664.0 358.0 L 668.0 358.0 L 669.0 359.0 L 672.0 359.0 L 677.0 361.0 L 681.0 361.0 L 682.0 362.0 L 689.0 363.0 L 693.0 365.0 L 714.0 366.0 L 715.0 367.0 L 729.0 367.0 L 730.0 366.0 L 737.0 365.0 L 740.0 363.0 L 742.0 363.0 L 749.0 360.0 L 752.0 360.0 L 757.0 357.0 L 764.0 356.0 L 771.0 353.0 L 774.0 353.0 L 775.0 352.0 L 786.0 349.0 L 796.0 344.0 L 804.0 342.0 L 822.0 333.0 L 824.0 333.0 L 825.0 332.0 L 831.0 332.0 L 835.0 336.0 L 840.0 345.0 L 848.0 354.0 L 854.0 369.0 L 855.0 376.0 L 858.0 380.0 L 858.0 382.0 L 860.0 385.0 L 860.0 387.0 L 862.0 390.0 L 862.0 392.0 L 865.0 399.0 L 864.0 401.0 L 865.0 402.0 L 865.0 408.0 L 867.0 412.0 L 867.0 418.0 L 868.0 419.0 L 867.0 425.0 L 866.0 426.0 L 866.0 434.0 L 864.0 438.0 L 865.0 442.0 L 858.0 451.0 L 853.0 453.0 L 850.0 459.0 L 842.0 465.0 L 837.0 467.0 L 820.0 482.0 L 818.0 482.0 L 808.0 492.0 L 803.0 495.0 L 790.0 508.0 L 789.0 508.0 L 772.0 525.0 L 770.0 529.0 L 766.0 533.0 L 762.0 540.0 L 756.0 547.0 L 750.0 557.0 L 738.0 568.0 L 734.0 577.0 L 729.0 583.0 L 729.0 586.0 L 728.0 587.0 L 730.0 591.0 L 729.0 598.0 L 725.0 603.0 L 718.0 618.0 L 714.0 624.0 L 714.0 626.0 L 710.0 631.0 L 707.0 637.0 L 707.0 639.0 L 702.0 648.0 L 702.0 650.0 L 700.0 653.0 L 699.0 658.0 L 696.0 664.0 L 694.0 674.0 L 691.0 679.0 L 688.0 690.0 L 683.0 701.0 L 682.0 707.0 L 678.0 712.0 L 676.0 716.0 L 676.0 718.0 L 671.0 727.0 L 664.0 735.0 L 661.0 740.0 L 655.0 740.0 L 652.0 742.0 L 648.0 747.0 L 640.0 747.0 L 639.0 748.0 L 635.0 748.0 L 631.0 750.0 L 628.0 750.0 L 626.0 752.0 L 614.0 752.0 L 613.0 753.0 L 610.0 753.0 L 609.0 752.0 L 608.0 753.0 L 603.0 753.0 L 602.0 752.0 L 582.0 752.0 L 581.0 753.0 L 577.0 753.0 L 576.0 754.0 L 574.0 754.0 L 568.0 759.0 L 568.0 766.0 L 569.0 768.0 L 578.0 772.0 L 580.0 774.0 L 590.0 779.0 L 592.0 779.0 L 603.0 785.0 L 605.0 785.0 L 615.0 789.0 L 619.0 789.0 L 620.0 790.0 L 624.0 790.0 L 625.0 791.0 L 626.0 790.0 L 627.0 791.0 L 633.0 791.0 L 634.0 792.0 L 640.0 793.0 L 661.0 805.0 L 664.0 805.0 L 668.0 807.0 L 680.0 807.0 L 684.0 805.0 L 688.0 801.0 L 689.0 801.0 L 694.0 791.0 L 694.0 786.0 L 695.0 785.0 L 695.0 782.0 L 697.0 777.0 L 697.0 766.0 L 698.0 765.0 L 701.0 754.0 L 706.0 745.0 L 712.0 738.0 L 717.0 730.0 L 719.0 729.0 L 733.0 714.0 L 745.0 705.0 L 749.0 701.0 L 749.0 700.0 L 758.0 692.0 L 759.0 689.0 L 765.0 681.0 L 765.0 679.0 L 769.0 673.0 L 769.0 671.0 L 773.0 663.0 L 773.0 660.0 L 775.0 657.0 L 776.0 651.0 L 778.0 648.0 L 779.0 638.0 L 780.0 637.0 L 780.0 630.0 L 781.0 629.0 L 781.0 625.0 L 782.0 624.0 L 781.0 623.0 L 781.0 620.0 L 785.0 616.0 L 786.0 616.0 L 788.0 613.0 L 788.0 610.0 L 792.0 607.0 L 793.0 604.0 L 797.0 601.0 L 802.0 600.0 L 807.0 597.0 L 831.0 575.0 L 837.0 571.0 L 842.0 569.0 L 848.0 564.0 L 853.0 562.0 L 858.0 558.0 L 863.0 556.0 L 872.0 550.0 L 881.0 546.0 L 888.0 541.0 L 894.0 538.0 L 896.0 538.0 L 900.0 535.0 L 920.0 530.0 L 926.0 533.0 L 931.0 538.0 L 939.0 553.0 L 941.0 561.0 L 943.0 564.0 L 944.0 569.0 L 947.0 575.0 L 947.0 578.0 L 948.0 579.0 L 948.0 582.0 L 949.0 583.0 L 949.0 586.0 L 951.0 590.0 L 951.0 593.0 L 952.0 594.0 L 952.0 597.0 L 953.0 598.0 L 954.0 603.0 L 960.0 612.0 L 961.0 615.0 L 966.0 621.0 L 970.0 629.0 L 970.0 633.0 L 971.0 634.0 L 971.0 636.0 L 970.0 637.0 L 971.0 638.0 L 971.0 645.0 L 975.0 651.0 L 975.0 655.0 L 977.0 657.0 L 977.0 665.0 L 974.0 670.0 L 974.0 674.0 L 972.0 678.0 L 971.0 689.0 L 969.0 694.0 L 970.0 696.0 L 969.0 697.0 L 969.0 702.0 L 968.0 703.0 L 968.0 716.0 L 969.0 717.0 L 969.0 723.0 L 970.0 724.0 L 970.0 728.0 L 971.0 729.0 L 972.0 734.0 L 975.0 739.0 L 977.0 749.0 L 978.0 750.0 L 978.0 754.0 L 979.0 755.0 L 979.0 759.0 L 980.0 760.0 L 980.0 766.0 L 981.0 767.0 L 981.0 777.0 L 982.0 778.0 L 982.0 790.0 L 980.0 794.0 L 980.0 802.0 L 977.0 807.0 L 978.0 808.0 L 977.0 821.0 L 976.0 822.0 L 976.0 834.0 L 977.0 835.0 L 976.0 844.0 L 977.0 845.0 L 977.0 848.0 L 982.0 853.0 L 984.0 854.0 L 989.0 854.0 L 990.0 855.0 L 1019.0 855.0 L 1020.0 854.0 L 1027.0 854.0 L 1032.0 852.0 Z
M 993.0 851.0 L 994.0 850.0 L 997.0 850.0 L 998.0 851.0 L 997.0 852.0 L 994.0 852.0 Z
M 1000.0 850.0 L 1001.0 849.0 L 1015.0 849.0 L 1016.0 850.0 L 1015.0 851.0 L 1001.0 851.0 Z
M 983.0 848.0 L 984.0 847.0 L 986.0 847.0 L 989.0 849.0 L 993.0 849.0 L 994.0 850.0 L 993.0 851.0 L 987.0 851.0 Z
M 982.0 847.0 L 983.0 846.0 L 984.0 847.0 L 983.0 848.0 Z
M 981.0 809.0 L 982.0 808.0 L 987.0 808.0 L 992.0 804.0 L 995.0 804.0 L 997.0 800.0 L 1008.0 800.0 L 1011.0 802.0 L 1014.0 806.0 L 1013.0 807.0 L 1011.0 806.0 L 1001.0 805.0 L 1000.0 806.0 L 996.0 806.0 L 994.0 807.0 L 994.0 808.0 L 995.0 809.0 L 996.0 808.0 L 1011.0 808.0 L 1012.0 809.0 L 1013.0 808.0 L 1015.0 808.0 L 1018.0 813.0 L 1018.0 816.0 L 1020.0 818.0 L 1022.0 824.0 L 1032.0 839.0 L 1032.0 843.0 L 1031.0 845.0 L 1028.0 848.0 L 1025.0 849.0 L 1024.0 848.0 L 1019.0 848.0 L 1016.0 846.0 L 1013.0 846.0 L 1012.0 845.0 L 1004.0 845.0 L 1003.0 846.0 L 999.0 846.0 L 998.0 847.0 L 990.0 847.0 L 985.0 844.0 L 983.0 844.0 L 980.0 840.0 L 982.0 836.0 L 986.0 832.0 L 987.0 825.0 L 982.0 832.0 L 980.0 828.0 L 980.0 823.0 L 981.0 822.0 Z
M 1017.0 829.0 L 1017.0 830.0 L 1021.0 832.0 L 1023.0 832.0 L 1021.0 829.0 L 1019.0 828.0 Z
M 993.0 829.0 L 997.0 829.0 L 1002.0 827.0 L 1011.0 827.0 L 1012.0 828.0 L 1014.0 828.0 L 1014.0 826.0 L 1010.0 824.0 L 1001.0 824.0 L 997.0 827.0 L 995.0 827.0 Z
M 999.0 816.0 L 999.0 817.0 L 1004.0 817.0 L 1005.0 818.0 L 1004.0 819.0 L 1000.0 819.0 L 999.0 821.0 L 1001.0 820.0 L 1012.0 820.0 L 1009.0 816.0 L 1006.0 817.0 L 1005.0 815.0 L 1004.0 816.0 L 1003.0 815.0 L 1002.0 816.0 Z
M 996.0 812.0 L 996.0 813.0 L 998.0 813.0 L 999.0 812.0 L 1005.0 812.0 L 1009.0 814.0 L 1012.0 814.0 L 1012.0 812.0 L 1011.0 811.0 L 1006.0 811.0 L 1005.0 810.0 L 1004.0 811.0 L 1003.0 810.0 L 1000.0 810.0 Z
M 654.0 796.0 L 656.0 794.0 L 659.0 794.0 L 666.0 798.0 L 668.0 798.0 L 671.0 800.0 L 674.0 800.0 L 678.0 802.0 L 676.0 804.0 L 674.0 803.0 L 669.0 803.0 L 668.0 802.0 L 663.0 801.0 L 660.0 799.0 L 658.0 799.0 Z
M 648.0 792.0 L 649.0 791.0 L 651.0 792.0 L 650.0 793.0 Z
M 645.0 791.0 L 646.0 790.0 L 648.0 790.0 L 649.0 791.0 L 648.0 792.0 L 646.0 792.0 Z
M 579.0 769.0 L 580.0 768.0 L 586.0 768.0 L 589.0 770.0 L 600.0 773.0 L 608.0 777.0 L 610.0 779.0 L 615.0 780.0 L 618.0 782.0 L 625.0 783.0 L 628.0 785.0 L 634.0 785.0 L 635.0 786.0 L 643.0 788.0 L 646.0 790.0 L 645.0 791.0 L 643.0 791.0 L 636.0 788.0 L 624.0 787.0 L 623.0 786.0 L 619.0 786.0 L 615.0 784.0 L 612.0 784.0 L 611.0 783.0 L 603.0 781.0 Z
M 694.0 772.0 L 692.0 775.0 L 693.0 776.0 L 693.0 778.0 L 691.0 780.0 L 691.0 786.0 L 688.0 794.0 L 684.0 798.0 L 679.0 799.0 L 678.0 798.0 L 671.0 797.0 L 663.0 793.0 L 659.0 793.0 L 653.0 788.0 L 649.0 786.0 L 645.0 786.0 L 644.0 785.0 L 636.0 783.0 L 635.0 782.0 L 635.0 778.0 L 625.0 769.0 L 624.0 769.0 L 624.0 770.0 L 632.0 781.0 L 631.0 782.0 L 628.0 782.0 L 627.0 781.0 L 622.0 780.0 L 619.0 778.0 L 611.0 776.0 L 599.0 769.0 L 596.0 769.0 L 593.0 767.0 L 591.0 767.0 L 587.0 765.0 L 574.0 764.0 L 572.0 761.0 L 575.0 758.0 L 581.0 757.0 L 582.0 756.0 L 598.0 756.0 L 599.0 757.0 L 618.0 756.0 L 622.0 760.0 L 628.0 764.0 L 629.0 762.0 L 624.0 757.0 L 626.0 755.0 L 631.0 755.0 L 634.0 759.0 L 636.0 759.0 L 633.0 755.0 L 635.0 753.0 L 639.0 753.0 L 643.0 759.0 L 645.0 758.0 L 642.0 754.0 L 643.0 752.0 L 645.0 752.0 L 651.0 758.0 L 653.0 757.0 L 650.0 753.0 L 651.0 751.0 L 657.0 755.0 L 657.0 752.0 L 653.0 751.0 L 652.0 750.0 L 652.0 748.0 L 655.0 745.0 L 659.0 743.0 L 665.0 748.0 L 665.0 749.0 L 661.0 752.0 L 664.0 753.0 L 667.0 756.0 L 670.0 763.0 L 677.0 770.0 L 679.0 771.0 L 693.0 770.0 Z
M 981.0 668.0 L 983.0 668.0 L 986.0 670.0 L 988.0 670.0 L 995.0 673.0 L 1003.0 674.0 L 1004.0 675.0 L 1018.0 675.0 L 1019.0 674.0 L 1026.0 673.0 L 1031.0 670.0 L 1032.0 671.0 L 1032.0 676.0 L 1034.0 681.0 L 1033.0 683.0 L 1033.0 701.0 L 1032.0 702.0 L 1032.0 706.0 L 1031.0 707.0 L 1032.0 708.0 L 1031.0 709.0 L 1031.0 714.0 L 1030.0 715.0 L 1029.0 723.0 L 1028.0 724.0 L 1028.0 729.0 L 1027.0 730.0 L 1026.0 739.0 L 1022.0 748.0 L 1022.0 752.0 L 1021.0 753.0 L 1019.0 761.0 L 1017.0 764.0 L 1016.0 771.0 L 1013.0 779.0 L 1013.0 793.0 L 1014.0 794.0 L 1015.0 799.0 L 1013.0 800.0 L 1009.0 797.0 L 999.0 796.0 L 998.0 797.0 L 995.0 797.0 L 992.0 800.0 L 988.0 802.0 L 987.0 804.0 L 985.0 803.0 L 985.0 800.0 L 984.0 799.0 L 984.0 795.0 L 987.0 789.0 L 987.0 780.0 L 986.0 779.0 L 986.0 773.0 L 985.0 772.0 L 984.0 757.0 L 983.0 756.0 L 983.0 752.0 L 981.0 748.0 L 981.0 742.0 L 974.0 727.0 L 974.0 724.0 L 973.0 723.0 L 973.0 716.0 L 972.0 715.0 L 972.0 704.0 L 973.0 703.0 L 973.0 699.0 L 974.0 698.0 L 974.0 692.0 L 976.0 687.0 L 976.0 681.0 L 977.0 680.0 L 977.0 676.0 L 978.0 675.0 L 979.0 670.0 Z
M 989.0 780.0 L 989.0 786.0 L 991.0 786.0 L 991.0 781.0 Z
M 996.0 694.0 L 994.0 704.0 L 993.0 705.0 L 993.0 708.0 L 992.0 709.0 L 992.0 720.0 L 993.0 721.0 L 993.0 724.0 L 995.0 729.0 L 995.0 733.0 L 996.0 734.0 L 996.0 741.0 L 998.0 745.0 L 997.0 747.0 L 997.0 754.0 L 998.0 754.0 L 998.0 730.0 L 997.0 729.0 L 997.0 726.0 L 996.0 725.0 L 995.0 718.0 L 994.0 717.0 L 995.0 716.0 L 996.0 702.0 L 997.0 701.0 L 997.0 696.0 L 998.0 695.0 Z
M 997.0 685.0 L 995.0 686.0 L 997.0 686.0 Z
M 981.0 661.0 L 983.0 660.0 L 993.0 665.0 L 996.0 665.0 L 1001.0 667.0 L 1005.0 667.0 L 1006.0 668.0 L 1018.0 668.0 L 1019.0 667.0 L 1025.0 666.0 L 1029.0 663.0 L 1030.0 664.0 L 1030.0 666.0 L 1024.0 670.0 L 1021.0 670.0 L 1017.0 672.0 L 1006.0 672.0 L 1005.0 671.0 L 1001.0 671.0 L 993.0 668.0 L 990.0 668.0 L 984.0 665.0 Z
M 776.0 620.0 L 778.0 622.0 L 777.0 623.0 L 777.0 628.0 L 775.0 630.0 L 776.0 632.0 L 776.0 636.0 L 775.0 637.0 L 774.0 647.0 L 771.0 652.0 L 771.0 655.0 L 770.0 656.0 L 769.0 661.0 L 767.0 664.0 L 767.0 666.0 L 765.0 669.0 L 765.0 671.0 L 763.0 674.0 L 763.0 676.0 L 759.0 681.0 L 756.0 687.0 L 744.0 700.0 L 743.0 700.0 L 730.0 712.0 L 726.0 714.0 L 709.0 733.0 L 707.0 737.0 L 702.0 743.0 L 697.0 753.0 L 693.0 766.0 L 692.0 767.0 L 688.0 767.0 L 687.0 768.0 L 686.0 767.0 L 682.0 768.0 L 678.0 766.0 L 671.0 758.0 L 671.0 756.0 L 669.0 754.0 L 670.0 753.0 L 670.0 750.0 L 668.0 746.0 L 664.0 742.0 L 674.0 730.0 L 686.0 707.0 L 689.0 697.0 L 693.0 689.0 L 694.0 683.0 L 698.0 675.0 L 699.0 668.0 L 700.0 667.0 L 701.0 662.0 L 704.0 657.0 L 704.0 655.0 L 706.0 652.0 L 707.0 647.0 L 710.0 643.0 L 711.0 639.0 L 715.0 631.0 L 717.0 629.0 L 721.0 620.0 L 723.0 618.0 L 725.0 614.0 L 726.0 609.0 L 730.0 604.0 L 733.0 604.0 L 734.0 605.0 L 739.0 606.0 L 742.0 608.0 L 744.0 608.0 L 758.0 615.0 L 764.0 616.0 L 765.0 617.0 L 770.0 618.0 L 773.0 620.0 Z
M 694.0 747.0 L 693.0 747.0 L 688.0 752.0 L 687.0 755.0 L 685.0 757.0 L 685.0 759.0 L 684.0 760.0 L 685.0 761.0 L 687.0 757.0 L 691.0 753.0 L 692.0 755.0 L 693.0 754.0 L 692.0 751.0 Z
M 702.0 726.0 L 701.0 725.0 L 698.0 727.0 L 696.0 726.0 L 692.0 731.0 L 691.0 734.0 L 696.0 736.0 L 698.0 734.0 L 698.0 731.0 L 702.0 727.0 Z
M 752.0 633.0 L 751.0 633.0 L 748.0 639.0 L 748.0 643.0 L 747.0 644.0 L 746.0 649.0 L 737.0 665.0 L 736.0 670.0 L 733.0 676.0 L 726.0 685.0 L 725.0 689.0 L 721.0 692.0 L 721.0 694.0 L 724.0 692.0 L 724.0 690.0 L 729.0 685.0 L 731.0 681.0 L 734.0 678.0 L 737.0 671.0 L 739.0 669.0 L 741.0 662.0 L 743.0 660.0 L 748.0 649.0 L 748.0 647.0 L 750.0 643.0 L 750.0 639.0 L 752.0 636.0 Z
M 756.0 624.0 L 754.0 626.0 L 754.0 628.0 L 756.0 626.0 Z
M 740.0 617.0 L 740.0 619.0 L 744.0 619.0 L 745.0 620.0 L 754.0 620.0 L 755.0 619.0 L 754.0 618.0 L 749.0 618.0 L 748.0 617.0 Z
M 732.0 598.0 L 734.0 595.0 L 737.0 595.0 L 740.0 597.0 L 751.0 600.0 L 766.0 608.0 L 779.0 612.0 L 780.0 614.0 L 778.0 617.0 L 774.0 617.0 L 771.0 615.0 L 768.0 615.0 L 767.0 614.0 L 756.0 611.0 L 744.0 604.0 L 734.0 601.0 Z
M 937.0 539.0 L 938.0 538.0 L 939.0 539.0 L 938.0 540.0 Z
M 935.0 537.0 L 936.0 536.0 L 937.0 537.0 L 936.0 538.0 Z
M 950.0 460.0 L 951.0 459.0 L 952.0 460.0 L 951.0 461.0 Z
M 951.0 459.0 L 952.0 458.0 L 953.0 459.0 L 952.0 460.0 Z
M 952.0 458.0 L 953.0 457.0 L 954.0 458.0 L 953.0 459.0 Z
M 953.0 457.0 L 954.0 456.0 L 955.0 457.0 L 954.0 458.0 Z
M 954.0 456.0 L 955.0 454.0 L 957.0 455.0 L 955.0 457.0 Z
M 918.0 507.0 L 918.0 526.0 L 917.0 527.0 L 912.0 527.0 L 902.0 531.0 L 897.0 531.0 L 895.0 533.0 L 888.0 536.0 L 886.0 538.0 L 876.0 543.0 L 874.0 545.0 L 865.0 549.0 L 860.0 553.0 L 853.0 556.0 L 843.0 563.0 L 840.0 564.0 L 839.0 563.0 L 840.0 561.0 L 837.0 561.0 L 833.0 563.0 L 828.0 568.0 L 822.0 571.0 L 822.0 572.0 L 827.0 571.0 L 837.0 563.0 L 839.0 563.0 L 840.0 564.0 L 830.0 572.0 L 825.0 574.0 L 821.0 579.0 L 814.0 584.0 L 802.0 595.0 L 799.0 596.0 L 797.0 598.0 L 794.0 598.0 L 793.0 597.0 L 789.0 603.0 L 786.0 605.0 L 784.0 603.0 L 784.0 601.0 L 783.0 601.0 L 783.0 603.0 L 785.0 605.0 L 785.0 607.0 L 782.0 610.0 L 781.0 609.0 L 778.0 609.0 L 772.0 606.0 L 767.0 605.0 L 753.0 597.0 L 738.0 593.0 L 733.0 589.0 L 733.0 585.0 L 734.0 583.0 L 738.0 580.0 L 740.0 572.0 L 755.0 558.0 L 756.0 554.0 L 766.0 542.0 L 776.0 527.0 L 811.0 494.0 L 816.0 491.0 L 816.0 490.0 L 820.0 486.0 L 830.0 480.0 L 839.0 471.0 L 842.0 469.0 L 844.0 469.0 L 851.0 463.0 L 854.0 462.0 L 856.0 456.0 L 859.0 454.0 L 863.0 454.0 L 864.0 450.0 L 868.0 446.0 L 874.0 452.0 L 875.0 455.0 L 873.0 456.0 L 871.0 454.0 L 869.0 454.0 L 870.0 455.0 L 875.0 456.0 L 898.0 480.0 L 910.0 501.0 L 914.0 505.0 Z
M 775.0 605.0 L 778.0 606.0 L 778.0 605.0 Z
M 759.0 595.0 L 759.0 596.0 L 769.0 601.0 L 771.0 601.0 L 771.0 599.0 L 767.0 597.0 Z
M 794.0 576.0 L 792.0 575.0 L 790.0 577.0 L 788.0 577.0 L 781.0 580.0 L 775.0 580.0 L 774.0 579.0 L 774.0 581.0 L 778.0 583.0 L 783.0 584.0 L 785.0 583.0 L 787.0 580.0 L 789.0 580.0 Z
M 782.0 582.0 L 783.0 581.0 L 784.0 582.0 L 783.0 583.0 Z
M 764.0 572.0 L 764.0 574.0 L 765.0 574.0 Z
M 846.0 553.0 L 843.0 553.0 L 840.0 555.0 L 829.0 558.0 L 826.0 560.0 L 831.0 560.0 L 832.0 559.0 L 838.0 558.0 L 841.0 556.0 L 843.0 556.0 L 846.0 554.0 Z
M 850.0 544.0 L 848.0 544.0 L 840.0 548.0 L 837.0 548.0 L 835.0 550.0 L 839.0 550.0 L 840.0 549.0 L 845.0 548.0 L 849.0 546.0 Z
M 853.0 543.0 L 856.0 543.0 L 856.0 542.0 L 854.0 542.0 Z
M 894.0 527.0 L 892.0 525.0 L 881.0 525.0 L 880.0 526.0 L 870.0 527.0 L 868.0 528.0 L 867.0 530.0 L 871.0 530.0 L 876.0 528.0 L 882.0 528.0 L 883.0 527.0 L 889.0 527.0 L 890.0 528.0 Z
M 881.0 502.0 L 886.0 507.0 L 893.0 512.0 L 895.0 515.0 L 896.0 514.0 L 896.0 512.0 L 884.0 501.0 Z
M 877.0 500.0 L 877.0 501.0 L 879.0 501.0 Z
M 870.0 466.0 L 870.0 468.0 L 879.0 474.0 L 885.0 480.0 L 885.0 481.0 L 887.0 481.0 L 885.0 476.0 L 875.0 468.0 Z
M 867.0 458.0 L 868.0 460.0 L 873.0 461.0 L 875.0 463.0 L 881.0 466.0 L 880.0 464.0 L 870.0 458.0 Z
M 985.0 434.0 L 987.0 434.0 L 998.0 453.0 L 998.0 460.0 L 1001.0 466.0 L 1001.0 469.0 L 1003.0 474.0 L 1003.0 479.0 L 1005.0 481.0 L 1006.0 487.0 L 1007.0 488.0 L 1007.0 492.0 L 1011.0 502.0 L 1011.0 514.0 L 1012.0 515.0 L 1013.0 522.0 L 1015.0 524.0 L 1015.0 526.0 L 1016.0 527.0 L 1016.0 531.0 L 1018.0 536.0 L 1019.0 548.0 L 1020.0 549.0 L 1020.0 555.0 L 1021.0 556.0 L 1021.0 561.0 L 1022.0 562.0 L 1022.0 570.0 L 1024.0 575.0 L 1024.0 579.0 L 1025.0 580.0 L 1026.0 589.0 L 1027.0 590.0 L 1027.0 595.0 L 1028.0 596.0 L 1028.0 621.0 L 1027.0 622.0 L 1027.0 629.0 L 1028.0 630.0 L 1028.0 635.0 L 1029.0 636.0 L 1029.0 645.0 L 1030.0 646.0 L 1031.0 651.0 L 1030.0 652.0 L 1030.0 656.0 L 1029.0 658.0 L 1026.0 661.0 L 1017.0 665.0 L 1003.0 665.0 L 999.0 663.0 L 995.0 663.0 L 985.0 658.0 L 983.0 658.0 L 979.0 654.0 L 980.0 653.0 L 980.0 650.0 L 975.0 644.0 L 975.0 630.0 L 971.0 623.0 L 971.0 621.0 L 964.0 612.0 L 962.0 607.0 L 960.0 605.0 L 957.0 599.0 L 957.0 597.0 L 955.0 593.0 L 955.0 590.0 L 954.0 589.0 L 954.0 586.0 L 953.0 585.0 L 953.0 582.0 L 952.0 581.0 L 952.0 577.0 L 951.0 576.0 L 948.0 565.0 L 946.0 562.0 L 946.0 559.0 L 940.0 548.0 L 938.0 540.0 L 939.0 539.0 L 944.0 544.0 L 946.0 549.0 L 953.0 559.0 L 953.0 563.0 L 957.0 570.0 L 958.0 570.0 L 954.0 562.0 L 955.0 560.0 L 954.0 559.0 L 954.0 557.0 L 952.0 555.0 L 950.0 550.0 L 947.0 546.0 L 941.0 540.0 L 942.0 539.0 L 945.0 540.0 L 951.0 546.0 L 952.0 546.0 L 952.0 544.0 L 943.0 536.0 L 935.0 532.0 L 931.0 532.0 L 929.0 530.0 L 922.0 527.0 L 920.0 524.0 L 920.0 508.0 L 919.0 507.0 L 920.0 506.0 L 925.0 505.0 L 931.0 499.0 L 933.0 492.0 L 940.0 478.0 L 943.0 475.0 L 946.0 469.0 L 952.0 463.0 L 953.0 463.0 L 953.0 462.0 L 965.0 449.0 L 970.0 447.0 L 976.0 443.0 L 984.0 442.0 L 985.0 440.0 L 984.0 439.0 L 981.0 439.0 L 974.0 443.0 L 972.0 443.0 L 966.0 448.0 L 964.0 447.0 L 971.0 441.0 Z
M 1025.0 646.0 L 1024.0 646.0 L 1023.0 648.0 L 1023.0 651.0 L 1018.0 656.0 L 1010.0 657.0 L 1010.0 658.0 L 1020.0 658.0 L 1023.0 655.0 L 1025.0 651.0 Z
M 982.0 632.0 L 988.0 638.0 L 990.0 638.0 L 993.0 640.0 L 993.0 639.0 L 989.0 637.0 L 984.0 632.0 L 984.0 631.0 Z
M 1025.0 601.0 L 1023.0 601.0 L 1023.0 604.0 L 1022.0 605.0 L 1021.0 618.0 L 1023.0 615.0 L 1024.0 608.0 L 1026.0 605.0 L 1026.0 602.0 Z
M 1010.0 524.0 L 1010.0 527.0 L 1012.0 530.0 L 1012.0 533.0 L 1013.0 534.0 L 1013.0 527.0 L 1012.0 526.0 L 1012.0 524.0 Z
M 957.0 512.0 L 951.0 512.0 L 950.0 513.0 L 942.0 515.0 L 938.0 517.0 L 938.0 518.0 L 940.0 518.0 L 950.0 514.0 L 954.0 514.0 L 955.0 513.0 L 957.0 513.0 Z
M 978.0 481.0 L 974.0 481.0 L 973.0 482.0 L 967.0 483.0 L 950.0 491.0 L 948.0 493.0 L 950.0 494.0 L 968.0 485.0 L 970.0 485.0 L 974.0 483.0 L 978.0 483.0 Z
M 987.0 464.0 L 986.0 463.0 L 984.0 463.0 L 983.0 464.0 L 978.0 464.0 L 977.0 465.0 L 975.0 465.0 L 963.0 471.0 L 959.0 474.0 L 958.0 476.0 L 961.0 476.0 L 964.0 473.0 L 973.0 468.0 L 983.0 466.0 L 984.0 465.0 L 987.0 465.0 Z
M 986.0 452.0 L 984.0 451.0 L 980.0 454.0 L 977.0 458.0 L 979.0 458.0 Z
M 882.0 418.0 L 883.0 417.0 L 884.0 418.0 L 883.0 419.0 Z
M 880.0 417.0 L 881.0 416.0 L 883.0 417.0 L 882.0 418.0 Z
M 856.0 354.0 L 857.0 353.0 L 858.0 354.0 L 857.0 355.0 Z
M 618.0 328.0 L 620.0 330.0 L 620.0 332.0 L 616.0 335.0 L 605.0 336.0 L 604.0 337.0 L 613.0 337.0 L 614.0 336.0 L 619.0 336.0 L 620.0 337.0 L 620.0 340.0 L 614.0 343.0 L 614.0 344.0 L 618.0 343.0 L 620.0 346.0 L 616.0 349.0 L 614.0 349.0 L 612.0 351.0 L 616.0 351.0 L 619.0 349.0 L 620.0 351.0 L 616.0 355.0 L 611.0 355.0 L 610.0 354.0 L 608.0 354.0 L 605.0 351.0 L 606.0 347.0 L 604.0 347.0 L 603.0 346.0 L 603.0 341.0 L 600.0 338.0 L 600.0 333.0 L 605.0 329.0 L 616.0 329.0 Z
M 830.0 326.0 L 831.0 325.0 L 832.0 327.0 L 831.0 328.0 Z
M 601.0 321.0 L 604.0 318.0 L 619.0 314.0 L 620.0 315.0 L 625.0 316.0 L 631.0 320.0 L 636.0 322.0 L 638.0 324.0 L 638.0 326.0 L 642.0 321.0 L 643.0 322.0 L 650.0 322.0 L 651.0 323.0 L 655.0 323.0 L 656.0 324.0 L 660.0 324.0 L 661.0 325.0 L 672.0 325.0 L 673.0 326.0 L 680.0 326.0 L 684.0 324.0 L 703.0 324.0 L 705.0 327.0 L 705.0 335.0 L 706.0 336.0 L 705.0 337.0 L 707.0 340.0 L 707.0 345.0 L 715.0 361.0 L 714.0 362.0 L 694.0 361.0 L 690.0 359.0 L 684.0 359.0 L 679.0 357.0 L 675.0 357.0 L 668.0 354.0 L 663.0 354.0 L 662.0 353.0 L 655.0 352.0 L 651.0 350.0 L 640.0 350.0 L 639.0 349.0 L 639.0 347.0 L 640.0 346.0 L 641.0 339.0 L 638.0 334.0 L 637.0 335.0 L 633.0 335.0 L 633.0 336.0 L 635.0 336.0 L 636.0 335.0 L 638.0 336.0 L 638.0 339.0 L 637.0 340.0 L 637.0 347.0 L 635.0 349.0 L 630.0 349.0 L 623.0 353.0 L 622.0 352.0 L 622.0 349.0 L 623.0 348.0 L 624.0 337.0 L 622.0 336.0 L 623.0 335.0 L 622.0 333.0 L 623.0 332.0 L 632.0 332.0 L 633.0 333.0 L 636.0 331.0 L 636.0 330.0 L 630.0 330.0 L 629.0 329.0 L 628.0 330.0 L 625.0 330.0 L 619.0 325.0 L 619.0 323.0 L 614.0 323.0 L 612.0 324.0 L 611.0 323.0 L 611.0 321.0 L 610.0 321.0 L 606.0 324.0 Z
M 644.0 340.0 L 646.0 342.0 L 651.0 341.0 L 650.0 339.0 L 645.0 339.0 Z
M 626.0 337.0 L 627.0 338.0 L 630.0 338.0 L 631.0 337.0 L 630.0 336.0 Z
M 992.0 307.0 L 993.0 308.0 L 993.0 310.0 L 991.0 312.0 L 990.0 310.0 Z
M 592.0 300.0 L 593.0 301.0 L 593.0 311.0 L 594.0 312.0 L 594.0 315.0 L 597.0 321.0 L 598.0 321.0 L 600.0 324.0 L 603.0 326.0 L 597.0 330.0 L 597.0 333.0 L 596.0 334.0 L 596.0 342.0 L 594.0 347.0 L 594.0 351.0 L 596.0 352.0 L 597.0 349.0 L 599.0 348.0 L 601.0 351.0 L 601.0 355.0 L 595.0 360.0 L 591.0 359.0 L 586.0 354.0 L 582.0 346.0 L 581.0 338.0 L 580.0 337.0 L 580.0 324.0 L 581.0 323.0 L 581.0 319.0 L 586.0 307.0 Z
M 584.0 327.0 L 584.0 342.0 L 585.0 343.0 L 585.0 347.0 L 588.0 349.0 L 587.0 347.0 L 587.0 338.0 L 586.0 337.0 L 586.0 328.0 Z
M 588.0 309.0 L 585.0 314.0 L 585.0 323.0 L 586.0 321.0 L 586.0 317.0 L 588.0 313.0 Z
M 592.0 300.0 L 593.0 299.0 L 594.0 300.0 L 593.0 301.0 Z
M 997.0 298.0 L 998.0 297.0 L 999.0 298.0 L 998.0 299.0 Z
M 864.0 258.0 L 866.0 257.0 L 869.0 259.0 L 868.0 260.0 L 866.0 260.0 Z
M 1071.0 233.0 L 1072.0 232.0 L 1073.0 233.0 L 1072.0 234.0 Z
M 931.0 232.0 L 932.0 233.0 L 928.0 236.0 L 927.0 235.0 Z
M 1070.0 232.0 L 1071.0 231.0 L 1072.0 232.0 L 1071.0 233.0 Z
M 931.0 232.0 L 933.0 230.0 L 935.0 231.0 L 933.0 233.0 Z
M 934.0 230.0 L 936.0 228.0 L 938.0 228.0 L 939.0 229.0 L 936.0 231.0 Z
M 938.0 228.0 L 939.0 227.0 L 941.0 228.0 L 940.0 229.0 Z
M 941.0 227.0 L 942.0 226.0 L 943.0 227.0 L 942.0 228.0 Z
M 884.0 226.0 L 885.0 225.0 L 886.0 226.0 L 885.0 227.0 Z
M 887.0 220.0 L 888.0 219.0 L 889.0 220.0 L 888.0 221.0 Z
M 914.0 218.0 L 915.0 217.0 L 916.0 218.0 L 915.0 219.0 Z
M 915.0 217.0 L 916.0 216.0 L 918.0 217.0 L 917.0 218.0 Z
M 917.0 216.0 L 918.0 215.0 L 920.0 216.0 L 919.0 217.0 Z
M 951.0 221.0 L 951.0 223.0 L 950.0 224.0 L 948.0 224.0 L 945.0 221.0 L 947.0 224.0 L 946.0 225.0 L 939.0 225.0 L 931.0 229.0 L 925.0 235.0 L 925.0 236.0 L 926.0 235.0 L 928.0 236.0 L 913.0 251.0 L 902.0 258.0 L 900.0 258.0 L 896.0 260.0 L 893.0 260.0 L 892.0 261.0 L 885.0 261.0 L 884.0 260.0 L 885.0 259.0 L 890.0 259.0 L 893.0 257.0 L 896.0 257.0 L 905.0 253.0 L 914.0 247.0 L 917.0 244.0 L 917.0 242.0 L 913.0 244.0 L 908.0 249.0 L 904.0 250.0 L 899.0 253.0 L 894.0 254.0 L 889.0 257.0 L 886.0 257.0 L 885.0 259.0 L 884.0 258.0 L 875.0 259.0 L 874.0 258.0 L 870.0 258.0 L 867.0 256.0 L 862.0 256.0 L 858.0 252.0 L 858.0 249.0 L 863.0 243.0 L 872.0 244.0 L 873.0 243.0 L 878.0 243.0 L 879.0 242.0 L 886.0 241.0 L 892.0 238.0 L 894.0 238.0 L 904.0 232.0 L 904.0 231.0 L 914.0 222.0 L 922.0 218.0 L 924.0 218.0 L 931.0 215.0 L 944.0 214.0 L 948.0 218.0 L 948.0 219.0 Z
M 919.0 215.0 L 922.0 213.0 L 924.0 213.0 L 925.0 214.0 L 922.0 216.0 L 920.0 216.0 Z
M 925.0 213.0 L 926.0 212.0 L 928.0 212.0 L 929.0 213.0 L 928.0 214.0 L 926.0 214.0 Z
M 931.0 211.0 L 936.0 209.0 L 943.0 209.0 L 945.0 211.0 L 944.0 212.0 L 932.0 212.0 Z
M 891.0 207.0 L 892.0 208.0 L 892.0 212.0 L 890.0 215.0 L 889.0 214.0 L 889.0 211.0 Z
M 892.0 200.0 L 893.0 201.0 L 893.0 207.0 L 892.0 208.0 L 891.0 207.0 L 891.0 201.0 Z
M 939.0 183.0 L 949.0 183.0 L 950.0 184.0 L 950.0 195.0 L 949.0 196.0 L 950.0 198.0 L 949.0 199.0 L 949.0 203.0 L 947.0 208.0 L 945.0 208.0 L 944.0 207.0 L 937.0 207.0 L 936.0 206.0 L 936.0 200.0 L 937.0 199.0 L 936.0 197.0 L 937.0 196.0 L 937.0 186.0 Z
M 930.0 183.0 L 931.0 184.0 L 931.0 194.0 L 930.0 195.0 L 929.0 208.0 L 926.0 210.0 L 923.0 210.0 L 915.0 213.0 L 906.0 221.0 L 905.0 221.0 L 898.0 228.0 L 892.0 231.0 L 890.0 233.0 L 886.0 234.0 L 885.0 232.0 L 891.0 222.0 L 891.0 220.0 L 893.0 216.0 L 893.0 213.0 L 894.0 212.0 L 894.0 209.0 L 897.0 202.0 L 897.0 185.0 L 898.0 184.0 L 903.0 184.0 L 904.0 185.0 L 905.0 184.0 L 912.0 184.0 L 913.0 183.0 Z
M 938.0 179.0 L 939.0 178.0 L 949.0 178.0 L 950.0 180.0 L 949.0 181.0 L 944.0 181.0 L 943.0 180.0 L 942.0 181.0 L 940.0 181.0 Z
M 897.0 180.0 L 898.0 179.0 L 906.0 179.0 L 907.0 178.0 L 930.0 178.0 L 931.0 179.0 L 928.0 181.0 L 898.0 181.0 Z
M 933.0 158.0 L 935.0 161.0 L 934.0 162.0 L 935.0 163.0 L 935.0 175.0 L 936.0 176.0 L 936.0 182.0 L 935.0 183.0 L 935.0 200.0 L 934.0 201.0 L 934.0 207.0 L 932.0 208.0 L 931.0 207.0 L 931.0 204.0 L 932.0 203.0 L 932.0 198.0 L 933.0 197.0 L 932.0 196.0 L 933.0 195.0 L 933.0 183.0 L 932.0 182.0 L 932.0 177.0 L 933.0 176.0 L 933.0 164.0 L 932.0 163.0 L 932.0 159.0 Z
M 932.0 153.0 L 933.0 154.0 L 933.0 156.0 L 932.0 157.0 L 931.0 156.0 L 931.0 154.0 Z
M 930.0 150.0 L 931.0 149.0 L 932.0 150.0 L 931.0 151.0 Z
M 880.0 138.0 L 882.0 140.0 L 886.0 149.0 L 886.0 153.0 L 887.0 154.0 L 887.0 158.0 L 888.0 159.0 L 888.0 166.0 L 889.0 167.0 L 889.0 169.0 L 888.0 170.0 L 889.0 172.0 L 889.0 178.0 L 888.0 180.0 L 889.0 181.0 L 889.0 187.0 L 890.0 188.0 L 890.0 196.0 L 889.0 197.0 L 889.0 204.0 L 888.0 205.0 L 888.0 208.0 L 886.0 211.0 L 884.0 211.0 L 887.0 215.0 L 885.0 218.0 L 883.0 225.0 L 875.0 234.0 L 867.0 238.0 L 861.0 238.0 L 859.0 237.0 L 854.0 231.0 L 847.0 217.0 L 847.0 215.0 L 845.0 211.0 L 845.0 207.0 L 844.0 206.0 L 844.0 203.0 L 845.0 202.0 L 843.0 199.0 L 843.0 197.0 L 841.0 193.0 L 841.0 189.0 L 840.0 188.0 L 841.0 172.0 L 845.0 161.0 L 855.0 148.0 L 859.0 145.0 L 869.0 140.0 L 872.0 140.0 L 876.0 138.0 Z
M 844.0 191.0 L 844.0 194.0 L 845.0 196.0 L 849.0 199.0 L 850.0 201.0 L 850.0 205.0 L 852.0 207.0 L 853.0 211.0 L 862.0 228.0 L 865.0 230.0 L 864.0 226.0 L 860.0 221.0 L 855.0 211.0 L 855.0 209.0 L 852.0 202.0 L 852.0 200.0 L 853.0 199.0 L 857.0 206.0 L 857.0 208.0 L 860.0 213.0 L 862.0 220.0 L 871.0 232.0 L 873.0 232.0 L 873.0 231.0 L 868.0 226.0 L 866.0 222.0 L 863.0 219.0 L 863.0 215.0 L 861.0 210.0 L 859.0 208.0 L 858.0 201.0 L 852.0 196.0 L 853.0 195.0 L 853.0 192.0 L 851.0 191.0 L 849.0 194.0 L 848.0 192.0 Z
M 847.0 196.0 L 848.0 195.0 L 849.0 196.0 L 848.0 197.0 Z
M 847.0 192.0 L 848.0 193.0 L 848.0 195.0 L 847.0 196.0 L 846.0 195.0 L 846.0 193.0 Z
M 876.0 144.0 L 874.0 143.0 L 873.0 144.0 L 871.0 144.0 L 862.0 149.0 L 856.0 158.0 L 858.0 159.0 L 859.0 156.0 L 862.0 153.0 L 863.0 153.0 L 868.0 148.0 L 871.0 147.0 L 873.0 145.0 L 876.0 145.0 Z
M 885.0 137.0 L 887.0 138.0 L 889.0 142.0 L 889.0 145.0 L 892.0 152.0 L 893.0 162.0 L 894.0 163.0 L 895.0 187.0 L 894.0 188.0 L 894.0 200.0 L 893.0 201.0 L 892.0 200.0 L 892.0 172.0 L 891.0 171.0 L 891.0 161.0 L 890.0 160.0 L 889.0 150.0 L 888.0 149.0 L 887.0 144.0 L 884.0 139.0 Z
M 1093.0 138.0 L 1094.0 146.0 L 1095.0 147.0 L 1095.0 152.0 L 1096.0 153.0 L 1096.0 156.0 L 1098.0 161.0 L 1098.0 165.0 L 1099.0 166.0 L 1099.0 173.0 L 1100.0 174.0 L 1102.0 184.0 L 1103.0 185.0 L 1103.0 189.0 L 1104.0 190.0 L 1105.0 198.0 L 1106.0 199.0 L 1106.0 205.0 L 1107.0 206.0 L 1108.0 215.0 L 1109.0 216.0 L 1110.0 237.0 L 1111.0 238.0 L 1111.0 245.0 L 1112.0 246.0 L 1112.0 251.0 L 1113.0 252.0 L 1112.0 253.0 L 1112.0 257.0 L 1109.0 261.0 L 1105.0 263.0 L 1100.0 264.0 L 1097.0 266.0 L 1095.0 266.0 L 1092.0 268.0 L 1090.0 268.0 L 1086.0 270.0 L 1083.0 270.0 L 1075.0 274.0 L 1071.0 274.0 L 1068.0 276.0 L 1047.0 282.0 L 1042.0 285.0 L 1037.0 286.0 L 1034.0 288.0 L 1031.0 288.0 L 1030.0 289.0 L 1023.0 290.0 L 1022.0 291.0 L 1012.0 292.0 L 1011.0 293.0 L 1010.0 291.0 L 1027.0 273.0 L 1031.0 271.0 L 1034.0 268.0 L 1032.0 268.0 L 1026.0 272.0 L 1023.0 276.0 L 1020.0 277.0 L 1000.0 298.0 L 998.0 297.0 L 998.0 294.0 L 1003.0 283.0 L 1004.0 277.0 L 1003.0 277.0 L 999.0 285.0 L 998.0 291.0 L 995.0 297.0 L 993.0 294.0 L 991.0 287.0 L 990.0 290.0 L 991.0 291.0 L 993.0 305.0 L 992.0 306.0 L 990.0 305.0 L 990.0 301.0 L 989.0 302.0 L 987.0 313.0 L 985.0 315.0 L 985.0 318.0 L 984.0 319.0 L 984.0 321.0 L 990.0 311.0 L 991.0 312.0 L 991.0 315.0 L 990.0 316.0 L 990.0 321.0 L 989.0 322.0 L 989.0 326.0 L 988.0 327.0 L 988.0 331.0 L 987.0 332.0 L 987.0 337.0 L 985.0 341.0 L 985.0 357.0 L 984.0 358.0 L 984.0 362.0 L 983.0 363.0 L 984.0 364.0 L 984.0 379.0 L 983.0 380.0 L 983.0 393.0 L 982.0 394.0 L 983.0 396.0 L 983.0 400.0 L 982.0 402.0 L 983.0 403.0 L 983.0 406.0 L 985.0 409.0 L 984.0 410.0 L 985.0 411.0 L 985.0 419.0 L 987.0 422.0 L 987.0 427.0 L 988.0 428.0 L 986.0 430.0 L 982.0 431.0 L 967.0 439.0 L 951.0 454.0 L 948.0 460.0 L 939.0 472.0 L 928.0 494.0 L 928.0 496.0 L 924.0 501.0 L 922.0 502.0 L 917.0 502.0 L 913.0 498.0 L 909.0 490.0 L 900.0 477.0 L 888.0 464.0 L 888.0 463.0 L 877.0 452.0 L 868.0 440.0 L 869.0 439.0 L 869.0 436.0 L 871.0 433.0 L 870.0 431.0 L 871.0 430.0 L 871.0 427.0 L 870.0 426.0 L 872.0 423.0 L 871.0 411.0 L 870.0 410.0 L 871.0 408.0 L 876.0 413.0 L 879.0 419.0 L 883.0 420.0 L 887.0 423.0 L 889.0 423.0 L 889.0 422.0 L 884.0 416.0 L 879.0 413.0 L 875.0 409.0 L 875.0 408.0 L 869.0 403.0 L 868.0 396.0 L 867.0 395.0 L 867.0 391.0 L 860.0 377.0 L 857.0 365.0 L 855.0 363.0 L 855.0 361.0 L 854.0 360.0 L 853.0 354.0 L 854.0 353.0 L 861.0 357.0 L 863.0 356.0 L 875.0 356.0 L 876.0 357.0 L 872.0 361.0 L 871.0 361.0 L 872.0 363.0 L 875.0 362.0 L 878.0 359.0 L 877.0 355.0 L 875.0 354.0 L 860.0 353.0 L 856.0 350.0 L 852.0 351.0 L 843.0 342.0 L 834.0 327.0 L 834.0 325.0 L 832.0 321.0 L 832.0 318.0 L 828.0 314.0 L 828.0 317.0 L 831.0 323.0 L 831.0 325.0 L 830.0 326.0 L 819.0 317.0 L 817.0 316.0 L 812.0 316.0 L 813.0 318.0 L 818.0 319.0 L 823.0 322.0 L 828.0 327.0 L 826.0 328.0 L 823.0 326.0 L 820.0 326.0 L 816.0 324.0 L 810.0 323.0 L 810.0 325.0 L 817.0 326.0 L 823.0 329.0 L 817.0 332.0 L 811.0 333.0 L 801.0 339.0 L 795.0 340.0 L 785.0 345.0 L 783.0 345.0 L 773.0 349.0 L 770.0 349.0 L 766.0 351.0 L 763.0 351.0 L 759.0 353.0 L 756.0 353.0 L 753.0 355.0 L 751.0 355.0 L 747.0 357.0 L 743.0 357.0 L 742.0 358.0 L 740.0 358.0 L 736.0 361.0 L 731.0 361.0 L 729.0 363.0 L 724.0 363.0 L 722.0 362.0 L 720.0 359.0 L 717.0 357.0 L 718.0 355.0 L 714.0 352.0 L 710.0 341.0 L 709.0 326.0 L 708.0 325.0 L 708.0 323.0 L 709.0 322.0 L 713.0 322.0 L 714.0 323.0 L 714.0 330.0 L 716.0 334.0 L 719.0 333.0 L 716.0 328.0 L 716.0 324.0 L 719.0 321.0 L 722.0 321.0 L 725.0 319.0 L 727.0 319.0 L 730.0 316.0 L 742.0 315.0 L 747.0 311.0 L 749.0 311.0 L 754.0 308.0 L 756.0 308.0 L 761.0 305.0 L 763.0 305.0 L 766.0 303.0 L 770.0 302.0 L 772.0 300.0 L 785.0 294.0 L 789.0 290.0 L 793.0 288.0 L 796.0 288.0 L 803.0 281.0 L 808.0 279.0 L 815.0 273.0 L 818.0 272.0 L 824.0 266.0 L 839.0 259.0 L 848.0 260.0 L 854.0 256.0 L 857.0 256.0 L 862.0 262.0 L 867.0 264.0 L 871.0 264.0 L 872.0 265.0 L 887.0 265.0 L 889.0 266.0 L 892.0 264.0 L 896.0 264.0 L 899.0 262.0 L 902.0 262.0 L 908.0 259.0 L 917.0 252.0 L 921.0 250.0 L 934.0 236.0 L 944.0 230.0 L 951.0 231.0 L 954.0 233.0 L 954.0 235.0 L 952.0 237.0 L 944.0 241.0 L 941.0 244.0 L 942.0 245.0 L 952.0 239.0 L 955.0 236.0 L 955.0 234.0 L 958.0 232.0 L 962.0 232.0 L 964.0 234.0 L 969.0 234.0 L 970.0 233.0 L 973.0 233.0 L 978.0 231.0 L 987.0 231.0 L 988.0 232.0 L 997.0 233.0 L 1001.0 235.0 L 1008.0 235.0 L 1010.0 237.0 L 1013.0 237.0 L 1014.0 236.0 L 1025.0 237.0 L 1026.0 236.0 L 1029.0 236.0 L 1034.0 234.0 L 1039.0 234.0 L 1044.0 232.0 L 1051.0 232.0 L 1052.0 231.0 L 1056.0 231.0 L 1057.0 230.0 L 1069.0 244.0 L 1070.0 242.0 L 1062.0 231.0 L 1065.0 228.0 L 1067.0 228.0 L 1070.0 231.0 L 1068.0 232.0 L 1068.0 233.0 L 1076.0 241.0 L 1077.0 241.0 L 1078.0 239.0 L 1072.0 234.0 L 1073.0 233.0 L 1073.0 231.0 L 1067.0 223.0 L 1068.0 215.0 L 1070.0 213.0 L 1070.0 208.0 L 1069.0 207.0 L 1069.0 184.0 L 1068.0 183.0 L 1068.0 179.0 L 1067.0 178.0 L 1067.0 165.0 L 1066.0 164.0 L 1066.0 158.0 L 1065.0 157.0 L 1065.0 152.0 L 1064.0 151.0 L 1064.0 144.0 L 1066.0 142.0 L 1076.0 141.0 L 1077.0 140.0 L 1079.0 140.0 L 1086.0 137.0 L 1089.0 137.0 L 1090.0 136.0 Z
M 896.0 465.0 L 906.0 475.0 L 907.0 477.0 L 910.0 475.0 L 910.0 474.0 L 907.0 473.0 L 898.0 465.0 Z
M 883.0 447.0 L 884.0 449.0 L 887.0 451.0 L 885.0 447.0 Z
M 881.0 426.0 L 898.0 441.0 L 903.0 441.0 L 904.0 442.0 L 910.0 442.0 L 911.0 443.0 L 913.0 443.0 L 914.0 442.0 L 920.0 442.0 L 923.0 440.0 L 923.0 439.0 L 921.0 440.0 L 906.0 440.0 L 905.0 439.0 L 899.0 439.0 L 891.0 432.0 L 890.0 432.0 L 883.0 425.0 Z
M 877.0 397.0 L 877.0 399.0 L 878.0 401.0 L 879.0 401.0 L 880.0 400.0 L 880.0 397.0 Z
M 978.0 387.0 L 975.0 389.0 L 975.0 391.0 L 974.0 392.0 L 974.0 399.0 L 975.0 400.0 L 976.0 399.0 L 978.0 399.0 Z
M 977.0 394.0 L 978.0 395.0 L 978.0 397.0 L 977.0 398.0 L 976.0 397.0 L 976.0 395.0 Z
M 981.0 353.0 L 980.0 353.0 L 978.0 356.0 L 977.0 365.0 L 978.0 365.0 L 979.0 363.0 L 979.0 357.0 Z
M 725.0 347.0 L 728.0 353.0 L 726.0 347.0 Z
M 746.0 346.0 L 748.0 349.0 L 750.0 349.0 L 751.0 350.0 L 753.0 349.0 L 753.0 348.0 Z
M 730.0 344.0 L 730.0 346.0 L 735.0 352.0 L 741.0 355.0 L 745.0 355.0 L 736.0 351.0 Z
M 982.0 331.0 L 975.0 341.0 L 969.0 347.0 L 969.0 349.0 L 970.0 350.0 L 978.0 340.0 L 980.0 335.0 L 982.0 333.0 Z
M 722.0 325.0 L 723.0 332.0 L 725.0 333.0 L 725.0 329.0 Z
M 826.0 292.0 L 828.0 294.0 L 829.0 293.0 L 830.0 294.0 L 833.0 292.0 L 831.0 291.0 Z
M 852.0 290.0 L 850.0 289.0 L 849.0 291.0 L 851.0 291.0 Z
M 957.0 273.0 L 962.0 275.0 L 959.0 271.0 Z
M 948.0 271.0 L 947.0 273.0 L 950.0 275.0 L 952.0 272.0 L 951.0 271.0 Z
M 850.0 267.0 L 852.0 267.0 L 855.0 263.0 L 860.0 264.0 L 861.0 265.0 L 861.0 264.0 L 860.0 264.0 L 859.0 262.0 L 853.0 262.0 L 853.0 264.0 Z
M 1085.0 256.0 L 1085.0 258.0 L 1088.0 258.0 L 1089.0 257.0 L 1091.0 258.0 L 1096.0 258.0 L 1097.0 260.0 L 1096.0 261.0 L 1093.0 261.0 L 1093.0 262.0 L 1098.0 261.0 L 1101.0 259.0 L 1101.0 258.0 L 1093.0 256.0 L 1090.0 254.0 L 1087.0 254.0 Z
M 1086.0 257.0 L 1087.0 256.0 L 1089.0 257.0 L 1088.0 258.0 Z
M 1074.0 158.0 L 1074.0 159.0 L 1077.0 159.0 L 1076.0 157.0 Z
M 925.0 136.0 L 929.0 139.0 L 930.0 138.0 L 936.0 138.0 L 937.0 137.0 L 939.0 137.0 L 942.0 139.0 L 942.0 141.0 L 948.0 157.0 L 949.0 164.0 L 950.0 165.0 L 950.0 175.0 L 949.0 176.0 L 939.0 176.0 L 937.0 174.0 L 937.0 164.0 L 936.0 163.0 L 936.0 158.0 L 935.0 157.0 L 934.0 152.0 L 932.0 149.0 L 931.0 144.0 L 929.0 141.0 L 927.0 141.0 L 924.0 137.0 Z
M 889.0 137.0 L 890.0 136.0 L 902.0 136.0 L 903.0 135.0 L 911.0 135.0 L 916.0 137.0 L 921.0 137.0 L 925.0 142.0 L 929.0 152.0 L 929.0 155.0 L 930.0 156.0 L 930.0 163.0 L 931.0 164.0 L 931.0 175.0 L 930.0 176.0 L 901.0 176.0 L 900.0 177.0 L 898.0 177.0 L 896.0 172.0 L 895.0 155.0 L 894.0 154.0 L 894.0 151.0 L 893.0 150.0 L 892.0 145.0 L 890.0 142.0 Z
M 1005.0 108.0 L 1008.0 106.0 L 1012.0 106.0 L 1013.0 107.0 L 1010.0 110.0 L 1008.0 110.0 Z
M 1012.0 106.0 L 1013.0 105.0 L 1015.0 106.0 L 1014.0 107.0 Z
M 1015.0 115.0 L 1026.0 109.0 L 1028.0 109.0 L 1035.0 106.0 L 1049.0 106.0 L 1052.0 108.0 L 1056.0 108.0 L 1055.0 106.0 L 1050.0 106.0 L 1043.0 103.0 L 1044.0 102.0 L 1052.0 102.0 L 1053.0 103.0 L 1057.0 103.0 L 1060.0 105.0 L 1062.0 105.0 L 1066.0 107.0 L 1076.0 115.0 L 1076.0 116.0 L 1083.0 123.0 L 1086.0 130.0 L 1086.0 133.0 L 1083.0 135.0 L 1068.0 139.0 L 1065.0 135.0 L 1066.0 134.0 L 1068.0 135.0 L 1071.0 133.0 L 1074.0 129.0 L 1069.0 130.0 L 1064.0 133.0 L 1059.0 133.0 L 1054.0 130.0 L 1047.0 129.0 L 1039.0 123.0 L 1037.0 123.0 L 1033.0 121.0 L 1030.0 121.0 L 1029.0 120.0 L 1025.0 120.0 L 1024.0 119.0 L 1026.0 117.0 L 1036.0 117.0 L 1042.0 121.0 L 1044.0 121.0 L 1044.0 119.0 L 1039.0 115.0 L 1040.0 114.0 L 1042.0 114.0 L 1043.0 115.0 L 1045.0 115.0 L 1049.0 119.0 L 1052.0 124.0 L 1053.0 124.0 L 1054.0 122.0 L 1055.0 124.0 L 1059.0 127.0 L 1064.0 129.0 L 1060.0 126.0 L 1050.0 116.0 L 1049.0 114.0 L 1041.0 111.0 L 1033.0 111.0 L 1032.0 112.0 L 1029.0 112.0 L 1018.0 117.0 L 1016.0 117.0 Z
M 1014.0 110.0 L 1020.0 105.0 L 1025.0 104.0 L 1022.0 104.0 L 1021.0 103.0 L 1022.0 102.0 L 1025.0 102.0 L 1028.0 100.0 L 1034.0 100.0 L 1035.0 101.0 L 1041.0 100.0 L 1044.0 102.0 L 1043.0 103.0 L 1035.0 103.0 L 1034.0 104.0 L 1031.0 104.0 L 1028.0 106.0 L 1025.0 106.0 L 1023.0 108.0 L 1021.0 108.0 L 1016.0 111.0 Z" fill="#000" fill-rule="evenodd"/>
  </g>
  <g transform="translate(752.0,222.0) scale(0.30208,0.34375)">
    <path d="M 41.0 26.0 L 41.0 127.0 L 42.0 128.0 L 42.0 132.0 L 43.0 133.0 L 44.0 138.0 L 46.0 141.0 L 46.0 143.0 L 49.0 149.0 L 51.0 151.0 L 53.0 155.0 L 63.0 165.0 L 64.0 165.0 L 67.0 168.0 L 74.0 172.0 L 76.0 172.0 L 77.0 173.0 L 79.0 173.0 L 83.0 175.0 L 86.0 175.0 L 87.0 176.0 L 91.0 176.0 L 92.0 177.0 L 102.0 177.0 L 103.0 176.0 L 107.0 176.0 L 108.0 175.0 L 110.0 175.0 L 111.0 174.0 L 119.0 172.0 L 123.0 169.0 L 128.0 167.0 L 137.0 159.0 L 137.0 158.0 L 144.0 150.0 L 148.0 142.0 L 148.0 140.0 L 150.0 137.0 L 151.0 131.0 L 153.0 129.0 L 153.0 26.0 Z
M 71.0 109.0 L 75.0 103.0 L 80.0 103.0 L 81.0 102.0 L 85.0 102.0 L 86.0 104.0 L 90.0 105.0 L 91.0 106.0 L 88.0 108.0 L 87.0 107.0 L 82.0 107.0 L 81.0 108.0 L 78.0 108.0 L 75.0 110.0 L 72.0 110.0 Z
M 88.0 85.0 L 89.0 84.0 L 90.0 85.0 L 89.0 86.0 Z
M 115.0 75.0 L 116.0 74.0 L 117.0 75.0 L 116.0 76.0 Z
M 116.0 74.0 L 118.0 72.0 L 119.0 73.0 L 118.0 75.0 Z
M 149.0 61.0 L 150.0 62.0 L 150.0 127.0 L 149.0 128.0 L 149.0 132.0 L 148.0 133.0 L 146.0 141.0 L 144.0 145.0 L 142.0 147.0 L 141.0 150.0 L 139.0 152.0 L 139.0 153.0 L 129.0 163.0 L 128.0 163.0 L 125.0 166.0 L 120.0 168.0 L 119.0 167.0 L 119.0 158.0 L 117.0 158.0 L 116.0 159.0 L 108.0 159.0 L 107.0 158.0 L 107.0 155.0 L 108.0 154.0 L 113.0 154.0 L 115.0 155.0 L 115.0 146.0 L 108.0 147.0 L 107.0 146.0 L 107.0 142.0 L 108.0 141.0 L 109.0 142.0 L 112.0 141.0 L 113.0 143.0 L 114.0 143.0 L 117.0 140.0 L 119.0 140.0 L 120.0 138.0 L 120.0 134.0 L 121.0 133.0 L 120.0 129.0 L 122.0 126.0 L 121.0 125.0 L 121.0 123.0 L 123.0 120.0 L 122.0 119.0 L 123.0 113.0 L 120.0 109.0 L 120.0 100.0 L 121.0 99.0 L 121.0 94.0 L 119.0 94.0 L 118.0 93.0 L 118.0 90.0 L 117.0 89.0 L 116.0 89.0 L 116.0 92.0 L 115.0 93.0 L 113.0 91.0 L 113.0 90.0 L 110.0 88.0 L 113.0 82.0 L 116.0 79.0 L 120.0 78.0 L 122.0 75.0 L 122.0 72.0 L 121.0 70.0 L 120.0 70.0 L 119.0 72.0 L 118.0 71.0 L 118.0 69.0 L 116.0 69.0 L 115.0 70.0 L 114.0 69.0 L 114.0 62.0 L 115.0 61.0 Z
M 44.0 61.0 L 53.0 61.0 L 54.0 62.0 L 55.0 61.0 L 111.0 61.0 L 112.0 62.0 L 112.0 65.0 L 111.0 66.0 L 111.0 69.0 L 110.0 70.0 L 110.0 75.0 L 111.0 76.0 L 111.0 79.0 L 109.0 83.0 L 107.0 85.0 L 107.0 87.0 L 106.0 88.0 L 106.0 94.0 L 108.0 98.0 L 116.0 105.0 L 117.0 107.0 L 117.0 110.0 L 115.0 112.0 L 110.0 107.0 L 110.0 106.0 L 106.0 104.0 L 103.0 101.0 L 103.0 91.0 L 104.0 90.0 L 104.0 88.0 L 102.0 86.0 L 102.0 85.0 L 105.0 82.0 L 105.0 81.0 L 104.0 81.0 L 102.0 79.0 L 103.0 76.0 L 100.0 75.0 L 98.0 73.0 L 99.0 69.0 L 100.0 68.0 L 100.0 65.0 L 98.0 65.0 L 95.0 67.0 L 94.0 66.0 L 94.0 64.0 L 91.0 63.0 L 91.0 64.0 L 89.0 66.0 L 86.0 66.0 L 84.0 65.0 L 85.0 73.0 L 82.0 76.0 L 84.0 79.0 L 83.0 80.0 L 81.0 80.0 L 80.0 78.0 L 78.0 78.0 L 78.0 81.0 L 81.0 83.0 L 84.0 83.0 L 86.0 85.0 L 85.0 87.0 L 84.0 86.0 L 82.0 86.0 L 78.0 84.0 L 74.0 80.0 L 74.0 72.0 L 72.0 69.0 L 69.0 72.0 L 64.0 72.0 L 65.0 75.0 L 63.0 76.0 L 62.0 78.0 L 71.0 88.0 L 77.0 91.0 L 76.0 93.0 L 74.0 93.0 L 74.0 95.0 L 75.0 96.0 L 74.0 97.0 L 70.0 97.0 L 67.0 95.0 L 63.0 97.0 L 63.0 98.0 L 65.0 99.0 L 65.0 101.0 L 64.0 102.0 L 64.0 106.0 L 66.0 106.0 L 67.0 105.0 L 71.0 110.0 L 70.0 111.0 L 69.0 117.0 L 70.0 117.0 L 72.0 119.0 L 76.0 120.0 L 78.0 122.0 L 78.0 124.0 L 79.0 125.0 L 74.0 130.0 L 69.0 130.0 L 67.0 132.0 L 66.0 132.0 L 66.0 133.0 L 69.0 135.0 L 70.0 139.0 L 72.0 139.0 L 76.0 136.0 L 77.0 137.0 L 80.0 137.0 L 82.0 138.0 L 82.0 132.0 L 86.0 128.0 L 88.0 128.0 L 89.0 127.0 L 89.0 126.0 L 85.0 123.0 L 85.0 120.0 L 91.0 117.0 L 95.0 113.0 L 97.0 114.0 L 96.0 115.0 L 95.0 119.0 L 98.0 119.0 L 99.0 118.0 L 100.0 119.0 L 101.0 123.0 L 102.0 124.0 L 104.0 123.0 L 105.0 124.0 L 105.0 126.0 L 107.0 126.0 L 109.0 123.0 L 111.0 125.0 L 113.0 124.0 L 115.0 126.0 L 115.0 130.0 L 108.0 137.0 L 107.0 136.0 L 98.0 136.0 L 98.0 146.0 L 99.0 147.0 L 98.0 167.0 L 99.0 168.0 L 117.0 168.0 L 118.0 169.0 L 117.0 170.0 L 113.0 171.0 L 112.0 172.0 L 110.0 172.0 L 109.0 173.0 L 106.0 173.0 L 105.0 174.0 L 90.0 174.0 L 89.0 173.0 L 81.0 172.0 L 70.0 167.0 L 67.0 164.0 L 66.0 164.0 L 54.0 152.0 L 54.0 151.0 L 52.0 149.0 L 48.0 142.0 L 48.0 140.0 L 46.0 137.0 L 46.0 135.0 L 44.0 131.0 L 44.0 127.0 L 43.0 126.0 L 43.0 62.0 Z
M 86.0 136.0 L 86.0 145.0 L 85.0 146.0 L 81.0 146.0 L 80.0 145.0 L 78.0 145.0 L 77.0 146.0 L 78.0 154.0 L 85.0 154.0 L 86.0 155.0 L 86.0 157.0 L 84.0 159.0 L 80.0 159.0 L 79.0 158.0 L 75.0 157.0 L 74.0 158.0 L 74.0 165.0 L 75.0 167.0 L 86.0 167.0 L 87.0 168.0 L 95.0 168.0 L 96.0 167.0 L 95.0 166.0 L 95.0 161.0 L 94.0 160.0 L 94.0 141.0 L 95.0 140.0 L 95.0 136.0 Z
M 43.0 30.0 L 44.0 29.0 L 150.0 29.0 L 151.0 30.0 L 150.0 32.0 L 150.0 35.0 L 151.0 36.0 L 150.0 38.0 L 150.0 40.0 L 151.0 41.0 L 150.0 42.0 L 151.0 44.0 L 151.0 47.0 L 150.0 48.0 L 151.0 49.0 L 151.0 56.0 L 149.0 59.0 L 44.0 59.0 L 43.0 58.0 Z
M 106.0 48.0 L 105.0 49.0 L 106.0 56.0 L 108.0 57.0 L 112.0 56.0 L 114.0 54.0 L 114.0 50.0 L 112.0 48.0 Z
M 108.0 51.0 L 109.0 50.0 L 111.0 51.0 L 110.0 52.0 Z
M 84.0 50.0 L 85.0 51.0 L 84.0 55.0 L 88.0 57.0 L 92.0 56.0 L 94.0 54.0 L 95.0 55.0 L 99.0 55.0 L 100.0 56.0 L 102.0 56.0 L 104.0 54.0 L 102.0 52.0 L 102.0 48.0 L 99.0 48.0 L 94.0 53.0 L 92.0 52.0 L 93.0 50.0 L 91.0 48.0 L 86.0 48.0 Z
M 80.0 48.0 L 78.0 49.0 L 77.0 51.0 L 79.0 52.0 L 80.0 56.0 L 82.0 56.0 L 82.0 48.0 Z
M 54.0 41.0 L 53.0 42.0 L 54.0 44.0 L 55.0 43.0 Z
M 74.0 35.0 L 71.0 43.0 L 73.0 43.0 L 74.0 42.0 L 79.0 42.0 L 80.0 43.0 L 82.0 43.0 L 79.0 36.0 L 78.0 35.0 Z
M 75.0 39.0 L 76.0 38.0 L 77.0 39.0 L 76.0 40.0 Z
M 57.0 35.0 L 57.0 37.0 L 60.0 43.0 L 63.0 43.0 L 65.0 40.0 L 66.0 41.0 L 66.0 43.0 L 68.0 43.0 L 68.0 41.0 L 66.0 41.0 L 65.0 40.0 L 67.0 35.0 L 64.0 35.0 L 64.0 37.0 L 62.0 39.0 L 60.0 38.0 L 59.0 35.0 Z
M 46.0 35.0 L 45.0 36.0 L 49.0 38.0 L 49.0 43.0 L 51.0 43.0 L 51.0 38.0 L 55.0 36.0 L 54.0 35.0 Z
M 128.0 34.0 L 128.0 43.0 L 135.0 43.0 L 136.0 42.0 L 138.0 43.0 L 145.0 43.0 L 147.0 42.0 L 148.0 40.0 L 148.0 37.0 L 146.0 35.0 L 144.0 34.0 L 138.0 34.0 L 137.0 35.0 L 137.0 40.0 L 136.0 41.0 L 132.0 41.0 L 130.0 39.0 L 130.0 35.0 Z
M 140.0 37.0 L 141.0 36.0 L 143.0 36.0 L 145.0 38.0 L 145.0 39.0 L 143.0 41.0 L 141.0 41.0 L 140.0 40.0 Z
M 117.0 34.0 L 116.0 35.0 L 116.0 42.0 L 117.0 43.0 L 125.0 43.0 L 125.0 41.0 L 123.0 41.0 L 122.0 40.0 L 123.0 37.0 L 125.0 36.0 L 125.0 35.0 L 124.0 34.0 Z
M 113.0 34.0 L 107.0 34.0 L 106.0 35.0 L 106.0 43.0 L 108.0 43.0 L 108.0 41.0 L 109.0 40.0 L 113.0 39.0 L 113.0 37.0 L 114.0 36.0 Z
M 84.0 35.0 L 84.0 42.0 L 85.0 43.0 L 92.0 43.0 L 93.0 42.0 L 94.0 43.0 L 101.0 43.0 L 103.0 42.0 L 103.0 39.0 L 102.0 38.0 L 103.0 35.0 L 101.0 34.0 L 96.0 34.0 L 93.0 36.0 L 93.0 38.0 L 95.0 40.0 L 93.0 42.0 L 92.0 41.0 L 88.0 41.0 L 86.0 39.0 L 86.0 35.0 L 85.0 34.0 Z" fill="#000" fill-rule="evenodd"/>
  </g>
  <g fill="#000">
    <rect x="372.0" y="802.0" width="418.0" height="6" rx="2"/>
    <polygon points="350.0,805.0 378.0,792.0 378.0,818.0"/>
  </g>
</svg>