<svg xmlns="http://www.w3.org/2000/svg"
shape-rendering="geometricPrecision"
width="4000" height="4000" viewBox="0 0 706 706">
  <metadata>null</metadata>

<path d="
M 34.376 402.019
C 35.529 403.266 37.577 404.498 39.073 405.316
C 42.903 405.639 46.795 405.289 50.629 405.229
C 56.362 405.141 62.14 405.213 67.866 405.495
C 71.017 405.651 74.169 405.473 77.322 405.549
C 78.918 405.588 81.153 406.025 82.684 405.472
C 83.857 405.048 84.882 403.347 85.661 402.429
C 87.706 400.021 89.968 397.817 92.038 395.435
C 92.99 394.339 93.824 393.564 93.975 392.09
C 93.594 391.487 93.081 390.86 93.134 390.115
C 93.642 389.457 94.135 388.821 94.839 388.367
C 95.272 389.03 95.202 390.065 95.289 390.837
C 95.421 392.002 95.699 393.272 95.266 394.41
C 94.894 395.384 93.795 396.093 93.1 396.827
C 91.456 398.56 89.894 400.413 88.334 402.224
C 86.954 403.825 85.141 406.55 83.196 407.46
C 82.189 407.93 80.825 407.765 79.741 407.802
C 76.638 407.909 73.633 407.528 70.564 407.403
C 61.996 407.054 53.348 407.299 44.773 407.362
C 42.916 407.375 40.431 408.047 38.656 407.398
C 37.355 406.923 36.305 405.507 35.137 404.748
C 34.099 404.073 31.372 402.619 32.777 401.454
C 33.467 401.397 33.775 401.729 34.376 402.019 Z"
opacity="1" fill="rgb(26,26,23)" fill-rule="evenodd" />
<path d="
M 93.134 390.115
C 93.081 390.86 93.594 391.487 93.975 392.09
C 93.824 393.564 92.99 394.339 92.038 395.435
C 89.968 397.817 87.706 400.021 85.661 402.429
C 84.882 403.347 83.857 405.048 82.684 405.472
C 81.153 406.025 78.918 405.588 77.322 405.549
C 74.169 405.473 71.017 405.651 67.866 405.495
C 62.14 405.213 56.362 405.141 50.629 405.229
C 46.795 405.289 42.903 405.639 39.073 405.316
C 37.577 404.498 35.529 403.266 34.376 402.019
C 35.043 400.464 38.921 401.229 40.508 401.257
C 46.511 401.363 52.512 401.1 58.515 401.196
C 64.174 401.285 69.845 401.467 75.504 401.417
C 77.584 401.399 80.469 401.931 82.35 400.85
C 86.678 398.361 89.156 393.032 93.134 390.115 Z"
opacity="1" fill="rgb(143,143,146)" fill-rule="evenodd" />
<path d="
M 55.278 395.099
C 56.491 396.612 57.511 396.165 59.376 396.223
C 61.809 396.3 64.223 396.374 66.66 396.325
C 70.87 396.239 76.258 397.738 80.314 396.322
C 81.872 395.778 83.487 393.16 84.522 391.94
C 87.357 388.598 90.897 385.693 93.508 382.188
C 93.787 380.994 93.407 379.409 93.292 378.186
C 93.018 377.529 92.747 376.925 92.704 376.205
C 93.42 375.368 94.257 374.644 95.175 374.041
C 95.297 377.052 95.68 380.384 95.301 383.376
C 94.575 384.584 93.196 385.642 92.211 386.657
C 90.5 388.421 88.853 390.276 87.283 392.168
C 85.662 394.061 84.062 396.645 81.802 397.839
C 79.723 398.938 76.268 398.638 74.002 398.461
C 70.144 398.159 66.228 398.169 62.36 398.267
C 59.908 398.329 57.456 398.217 55.005 398.288
C 54.22 398.31 52.824 398.654 52.215 398.116
C 53.016 396.978 54.15 395.914 55.278 395.099 Z"
opacity="1" fill="rgb(29,33,30)" fill-rule="evenodd" />
<path d="
M 54.952 411.356
C 55.501 412.609 56.816 412.856 57.87 413.584
C 58.64 414.116 59.18 414.979 59.894 415.584
C 60.749 416.982 62.115 417.956 63.297 419.059
C 65.437 421.054 67.691 423.538 70.275 424.948
C 75.695 425.392 85.646 422.248 86.896 429.99
C 87.432 435.14 87.14 440.344 87.133 445.51
C 87.122 453.009 87.266 460.51 87.165 468.008
C 87.137 470.134 87.325 472.374 87.079 474.485
C 86.795 476.925 85.844 480.116 86.521 482.483
C 87.401 482.492 88.975 479.26 89.313 478.443
C 90.994 476.915 92.74 475.142 94.062 473.292
C 94.626 469.92 94.101 465.84 93.958 462.397
C 93.765 457.77 93.861 453.124 93.842 448.495
C 93.81 440.999 93.65 433.501 93.71 426.005
C 93.762 419.484 94.062 412.89 93.336 406.429
C 94.609 405.108 93.929 403.46 93.161 402.097
C 93.678 401.307 94.313 400.55 95.075 399.997
C 95.912 401.832 95.405 404.511 95.397 406.495
C 95.376 411.495 95.387 416.497 95.389 421.498
C 95.394 434.169 95.75 446.812 95.704 459.494
C 95.687 463.968 96.01 468.552 95.729 473.012
C 95.641 474.399 94.498 475.348 93.693 476.387
C 91.782 478.852 89.864 481.346 87.822 483.704
C 87.022 484.628 86.314 486.234 85.034 486.502
C 84.704 484.926 84.967 483.125 84.955 481.515
C 84.93 478.341 84.882 475.167 84.884 471.993
C 84.892 462.172 84.921 452.351 84.921 442.53
C 84.922 438.955 84.945 435.38 84.931 431.805
C 84.925 430.187 85.258 428.34 83.898 427.217
C 81.068 426.954 78.189 426.84 75.347 426.889
C 73.735 426.917 71.827 427.339 70.251 426.986
C 68.242 426.535 66.32 424.091 64.823 422.767
C 62.276 420.515 59.712 418.234 57.101 416.06
C 55.425 414.664 53.376 413.161 52.154 411.352
C 53.101 411.161 53.992 411.35 54.952 411.356 Z"
opacity="1" fill="rgb(39,40,41)" fill-rule="evenodd" />
<path d="
M 54.952 411.356
C 56.932 411.106 59.001 411.419 61 411.372
C 65.939 411.257 70.881 411.323 75.819 411.212
C 78.358 411.154 81.388 411.665 83.802 410.725
C 84.872 409.838 85.829 408.822 86.892 407.928
C 88.852 406.169 90.889 403.361 93.161 402.097
C 93.929 403.46 94.609 405.108 93.336 406.429
C 92.044 406.051 90.977 407.553 90.21 408.431
C 88.495 410.395 86.81 412.892 84.051 413.324
C 78.67 414.166 73.148 413.406 67.749 413.317
C 66.27 413.293 64.792 413.311 63.313 413.3
C 62.815 413.297 61.914 413.128 61.464 413.419
C 60.719 413.901 60.63 415.158 59.894 415.584
C 59.18 414.979 58.64 414.116 57.87 413.584
C 56.816 412.856 55.501 412.609 54.952 411.356 Z"
opacity="1" fill="rgb(148,156,155)" fill-rule="evenodd" />
<path d="
M 74.632 390.486
C 76.318 391.019 76.166 389.845 76.441 388.545
C 78.319 388.484 81.497 388.836 82.919 387.31
C 83.506 386.679 83.447 385.916 83.773 385.183
C 86.893 382.379 89.415 378.788 92.704 376.205
C 92.747 376.925 93.018 377.529 93.292 378.186
C 93.407 379.409 93.787 380.994 93.508 382.188
C 90.897 385.693 87.357 388.598 84.522 391.94
C 83.487 393.16 81.872 395.778 80.314 396.322
C 76.258 397.738 70.87 396.239 66.66 396.325
C 64.223 396.374 61.809 396.3 59.376 396.223
C 57.511 396.165 56.491 396.612 55.278 395.099
C 56.512 393.947 59.191 394.424 60.751 394.334
C 65.487 394.061 70.101 393.447 74.841 393.636
C 75.103 392.888 74.69 391.31 74.632 390.486 Z"
opacity="1" fill="rgb(120,122,122)" fill-rule="evenodd" />
<path d="
M 59.894 415.584
C 60.63 415.158 60.719 413.901 61.464 413.419
C 61.914 413.128 62.815 413.297 63.313 413.3
C 64.792 413.311 66.27 413.293 67.749 413.317
C 73.148 413.406 78.67 414.166 84.051 413.324
C 86.81 412.892 88.495 410.395 90.21 408.431
C 90.977 407.553 92.044 406.051 93.336 406.429
C 94.062 412.89 93.762 419.484 93.71 426.005
C 93.65 433.501 93.81 440.999 93.842 448.495
C 93.861 453.124 93.765 457.77 93.958 462.397
C 94.101 465.84 94.626 469.92 94.062 473.292
C 92.74 475.142 90.994 476.915 89.313 478.443
C 89.501 477.603 88.775 476.895 88.755 476.025
C 88.706 473.779 88.655 471.531 88.609 469.283
C 88.455 461.67 88.567 454.044 88.453 446.427
C 88.389 442.122 88.382 437.812 88.251 433.507
C 88.234 432.935 87.887 428.614 86.896 429.99
C 85.646 422.248 75.695 425.392 70.275 424.948
C 67.691 423.538 65.437 421.054 63.297 419.059
C 62.115 417.956 60.749 416.982 59.894 415.584 Z"
opacity="1" fill="rgb(89,90,94)" fill-rule="evenodd" />
<path d="
M 62.712 387.319
C 63.353 387.174 63.656 387.235 64.253 387.426
C 65.081 387.812 66.107 387.567 66.997 387.555
C 68.991 387.529 71.02 387.732 73.014 387.811
C 74.005 387.85 75.715 387.737 76.441 388.545
C 76.166 389.845 76.318 391.019 74.632 390.486
C 74.024 389.562 72.435 389.814 71.324 389.78
C 68.334 389.688 64.56 390.439 61.701 389.612
C 61.736 388.808 62.255 387.971 62.712 387.319 Z"
opacity="0.996" fill="rgb(48,51,45)" fill-rule="evenodd" />
<path d="
M 83.773 385.183
C 83.447 385.916 83.506 386.679 82.919 387.31
C 81.497 388.836 78.319 388.484 76.441 388.545
C 75.715 387.737 74.005 387.85 73.014 387.811
C 71.02 387.732 68.991 387.529 66.997 387.555
C 66.107 387.567 65.081 387.812 64.253 387.426
C 63.656 387.235 63.353 387.174 62.712 387.319
C 64.032 385.053 66.089 384.957 68.485 384.983
C 72.059 385.023 75.636 385.272 79.208 385.401
C 80.504 385.448 82.617 385.84 83.773 385.183 Z"
opacity="0.996" fill="rgb(165,171,167)" fill-rule="evenodd" />
<path d="
M 75.461 308.579
C 78.425 302.752 83.813 298.358 88.45 293.882
C 93.241 289.258 97.727 283.62 103.143 279.729
C 103.622 283.014 103.204 286.656 103.177 289.986
C 103.127 295.983 103.228 301.99 103.262 307.988
C 103.277 310.654 103.277 313.32 103.276 315.986
C 103.275 317.365 103.609 318.915 103.128 320.231
C 99.685 323.792 96 327.099 92.592 330.703
C 91.009 332.376 89.186 334.067 88.093 336.122
C 87.144 337.905 87.676 340.768 87.7 342.727
C 87.743 346.25 87.803 349.769 87.769 353.293
C 87.748 355.449 87.461 357.909 87.91 360.03
C 88.657 363.557 93.986 364.716 94.941 368.047
C 94.672 369.197 92.905 370.381 92.076 371.174
C 89.777 373.376 87.442 375.554 85.022 377.623
C 83.998 378.499 82.849 379.778 81.497 380.12
C 79.562 380.61 77.52 379.852 75.579 379.823
C 74.828 378.945 75.291 376.143 75.308 374.999
C 75.371 370.831 75.317 366.662 75.304 362.494
C 75.268 350.159 75.297 337.824 75.243 325.49
C 75.227 321.846 75.279 318.204 75.217 314.561
C 75.185 312.62 74.868 310.457 75.461 308.579 Z
M 101.24 285.849
C 101.365 285.334 101.728 284.441 101.336 283.951
C 101.037 283.579 98.969 285.96 98.713 286.188
C 95.806 288.783 92.939 291.444 90.197 294.216
C 86.696 297.756 82.968 301.043 80.056 305.119
C 79.153 306.382 77.986 307.53 77.447 309.018
C 76.162 312.563 77.457 317.281 77.318 320.983
C 77.023 328.548 77.221 335.943 77.312 343.491
C 77.466 353.813 77.541 364.206 77.224 374.523
C 77.187 375.668 76.772 377.258 77.066 378.337
C 78.372 378.41 80.015 378.685 81.252 378.133
C 82.516 377.569 83.66 376.436 84.72 375.563
C 87.384 373.37 90.739 370.534 92.555 367.58
C 92.393 366.925 91.16 366.114 90.686 365.619
C 89.21 364.075 87.272 362.544 86.427 360.529
C 85.627 358.623 85.962 355.703 85.924 353.642
C 85.854 349.827 85.876 346.012 85.832 342.196
C 85.808 340.087 85.515 337.568 86.368 335.588
C 88.313 331.077 92.977 327.202 96.485 323.907
C 97.886 322.591 100.882 320.899 101.333 318.978
C 101.759 315.579 101.396 311.939 101.425 308.511
C 101.467 303.493 101.815 298.442 101.715 293.429
C 101.666 290.963 101.097 288.264 101.24 285.849 Z"
opacity="1" fill="rgb(87,88,90)" fill-rule="evenodd" />
<path d="
M 77.318 320.983
C 78.124 321.886 78.028 317.734 78.053 317.029
C 78.159 313.987 78.104 310.765 79.693 308.083
C 83.311 301.976 89.3 297.236 94.353 292.356
C 96.462 290.319 98.576 287.124 101.24 285.849
C 101.097 288.264 101.666 290.963 101.715 293.429
C 101.815 298.442 101.467 303.493 101.425 308.511
C 101.396 311.939 101.759 315.579 101.333 318.978
C 100.882 320.899 97.886 322.591 96.485 323.907
C 92.977 327.202 88.313 331.077 86.368 335.588
C 85.515 337.568 85.808 340.087 85.832 342.196
C 85.876 346.012 85.854 349.827 85.924 353.642
C 85.962 355.703 85.627 358.623 86.427 360.529
C 87.272 362.544 89.21 364.075 90.686 365.619
C 91.16 366.114 92.393 366.925 92.555 367.58
C 90.739 370.534 87.384 373.37 84.72 375.563
C 83.66 376.436 82.516 377.569 81.252 378.133
C 80.015 378.685 78.372 378.41 77.066 378.337
C 76.772 377.258 77.187 375.668 77.224 374.523
C 78.931 373.963 78.166 369.062 78.194 367.493
C 78.324 360.312 78.392 353.08 77.919 345.914
C 77.903 345.015 78.566 344.645 78.624 343.94
C 78.678 343.294 77.633 342.858 77.312 343.491
C 77.221 335.943 77.023 328.548 77.318 320.983 Z"
opacity="1" fill="rgb(158,159,159)" fill-rule="evenodd" />
<path d="
M 101.24 285.849
C 98.576 287.124 96.462 290.319 94.353 292.356
C 89.3 297.236 83.311 301.976 79.693 308.083
C 78.104 310.765 78.159 313.987 78.053 317.029
C 78.028 317.734 78.124 321.886 77.318 320.983
C 77.457 317.281 76.162 312.563 77.447 309.018
C 77.986 307.53 79.153 306.382 80.056 305.119
C 82.968 301.043 86.696 297.756 90.197 294.216
C 92.939 291.444 95.806 288.783 98.713 286.188
C 98.969 285.96 101.037 283.579 101.336 283.951
C 101.728 284.441 101.365 285.334 101.24 285.849 Z"
opacity="0.996" fill="rgb(176,167,176)" fill-rule="evenodd" />
<path d="
M 77.312 343.491
C 77.633 342.858 78.678 343.294 78.624 343.94
C 78.566 344.645 77.903 345.015 77.919 345.914
C 78.392 353.08 78.324 360.312 78.194 367.493
C 78.166 369.062 78.931 373.963 77.224 374.523
C 77.541 364.206 77.466 353.813 77.312 343.491 Z"
opacity="0.996" fill="rgb(171,158,170)" fill-rule="evenodd" />
<path d="
M 86.896 429.99
C 87.887 428.614 88.234 432.935 88.251 433.507
C 88.382 437.812 88.389 442.122 88.453 446.427
C 88.567 454.044 88.455 461.67 88.609 469.283
C 88.655 471.531 88.706 473.779 88.755 476.025
C 88.775 476.895 89.501 477.603 89.313 478.443
C 88.975 479.26 87.401 482.492 86.521 482.483
C 85.844 480.116 86.795 476.925 87.079 474.485
C 87.325 472.374 87.137 470.134 87.165 468.008
C 87.266 460.51 87.122 453.009 87.133 445.51
C 87.14 440.344 87.432 435.14 86.896 429.99 Z"
opacity="0.996" fill="rgb(138,129,139)" fill-rule="evenodd" />
<path d="
M 102.192 452.004
C 104.42 451.993 105.984 449.432 106.342 447.471
C 107.238 442.56 106.295 436.985 106.265 432.004
C 106.221 424.712 105.801 417.378 105.897 410.1
C 106.091 395.323 106.785 380.463 106.119 365.691
C 104.189 363.595 102.062 361.518 99.926 359.629
C 99.044 358.849 97.706 357.635 96.533 357.41
C 95.404 358.878 96.352 360.057 97.497 361.157
C 99.343 362.929 102.635 364.772 103.296 367.4
C 103.778 369.462 103.425 369.775 101.886 371.003
C 101.821 369.962 102.095 368.677 101.728 367.683
C 100.595 364.617 96.202 363.47 94.717 360.586
C 94.262 358.338 94.716 355.542 94.613 353.219
C 98.294 355.272 101.522 359.077 104.7 361.881
C 105.675 362.741 107.665 363.801 108.075 365.093
C 108.547 366.58 108.256 368.731 108.269 370.285
C 108.303 374.187 108.212 378.093 108.184 381.995
C 108.098 394.321 108.029 406.67 108.186 418.995
C 108.268 425.462 108.279 431.929 108.372 438.395
C 108.414 441.306 109.065 445.085 108.217 447.888
C 107.565 450.041 105.258 451.706 104.06 453.564
C 103.663 454.178 103.034 455.636 102.138 455.221
C 102.086 454.147 102.151 453.078 102.192 452.004 Z"
opacity="1" fill="rgb(50,53,54)" fill-rule="evenodd" />
<path d="
M 102.192 452.004
C 102.18 439.004 101.883 425.998 101.871 412.994
C 101.865 407.362 101.474 401.604 101.915 395.987
C 102.354 397.001 103.302 395.925 103.317 395.272
C 103.357 393.538 103.05 391.762 103.035 390.016
C 102.998 385.512 103.13 381.058 103.376 376.578
C 103.37 375.452 102.264 374.223 101.957 375.999
C 101.895 374.325 101.867 372.677 101.886 371.003
C 103.425 369.775 103.778 369.462 103.296 367.4
C 102.635 364.772 99.343 362.929 97.497 361.157
C 96.352 360.057 95.404 358.878 96.533 357.41
C 97.706 357.635 99.044 358.849 99.926 359.629
C 102.062 361.518 104.189 363.595 106.119 365.691
C 106.785 380.463 106.091 395.323 105.897 410.1
C 105.801 417.378 106.221 424.712 106.265 432.004
C 106.295 436.985 107.238 442.56 106.342 447.471
C 105.984 449.432 104.42 451.993 102.192 452.004 Z"
opacity="1" fill="rgb(124,123,129)" fill-rule="evenodd" />
<path d="
M 101.957 375.999
C 102.264 374.223 103.37 375.452 103.376 376.578
C 103.13 381.058 102.998 385.512 103.035 390.016
C 103.05 391.762 103.357 393.538 103.317 395.272
C 103.302 395.925 102.354 397.001 101.915 395.987
C 101.772 389.353 101.663 382.629 101.957 375.999 Z"
opacity="0.992" fill="rgb(150,148,150)" fill-rule="evenodd" />
<path d="
M 113.282 250.305
C 113.175 251.579 113.092 252.709 112.871 253.974
C 111.661 254.505 109.402 256.537 112.335 256.467
C 112.794 262.654 112.628 268.859 112.822 275.074
C 113.349 291.867 113.59 308.714 113.377 325.503
C 113.33 329.17 113.274 332.836 113.167 336.502
C 113.121 338.091 112.711 340.019 113.36 341.52
C 114.383 343.888 117.644 346.089 119.426 347.934
C 119.773 348.293 121.202 349.92 120.455 350.467
C 119.939 350.845 118.102 349.085 117.712 348.814
C 116.032 347.648 114.785 346.186 113.228 344.901
C 112.286 344.123 110.964 343.633 110.303 342.572
C 109.621 339.263 110.192 335.45 110.106 332.07
C 109.88 323.198 109.906 314.36 110.101 305.498
C 110.163 302.687 110.077 299.873 110.139 297.063
C 110.168 295.717 110.489 294.405 108.921 293.985
C 108.666 285.498 108.626 276.994 108.666 268.502
C 108.685 264.399 108.144 260.013 108.762 255.951
C 109.766 254.03 111.652 251.735 113.282 250.305 Z"
opacity="0.996" fill="rgb(148,145,145)" fill-rule="evenodd" />
<path d="
M 108.921 293.985
C 110.489 294.405 110.168 295.717 110.139 297.063
C 110.077 299.873 110.163 302.687 110.101 305.498
C 109.906 314.36 109.88 323.198 110.106 332.07
C 110.192 335.45 109.621 339.263 110.303 342.572
C 110.964 343.633 112.286 344.123 113.228 344.901
C 114.785 346.186 116.032 347.648 117.712 348.814
C 118.102 349.085 119.939 350.845 120.455 350.467
C 121.202 349.92 119.773 348.293 119.426 347.934
C 117.644 346.089 114.383 343.888 113.36 341.52
C 112.711 340.019 113.121 338.091 113.167 336.502
C 113.274 332.836 113.33 329.17 113.377 325.503
C 113.59 308.714 113.349 291.867 112.822 275.074
C 112.628 268.859 112.794 262.654 112.335 256.467
C 112.579 255.646 112.778 254.826 112.871 253.974
C 113.092 252.709 113.175 251.579 113.282 250.305
C 113.71 249.65 114.167 249.211 114.888 248.895
C 115.268 249.725 114.951 250.728 114.943 251.611
C 114.928 253.336 115.139 255.051 115.149 256.784
C 115.187 263.078 115.116 269.366 115.018 275.659
C 114.792 290.271 114.825 304.887 114.896 319.5
C 114.931 326.591 114.37 333.87 114.999 340.903
C 116.257 343.743 119.926 344.954 121.645 347.499
C 122.562 348.859 122.341 352.931 121.897 354.443
C 120.576 354.411 119.446 352.78 118.561 351.931
C 116.353 349.814 113.963 347.925 111.652 345.925
C 110.708 345.107 109.164 344.35 108.827 343.051
C 108.451 341.601 108.819 339.718 108.816 338.223
C 108.809 334.48 108.877 330.738 108.856 326.995
C 108.818 320.005 108.945 313.022 108.934 306.034
C 108.928 302.028 108.591 297.985 108.921 293.985 Z"
opacity="0.996" fill="rgb(66,64,67)" fill-rule="evenodd" />
<path d="
M 112.871 253.974
C 112.778 254.826 112.579 255.646 112.335 256.467
C 109.402 256.537 111.661 254.505 112.871 253.974 Z"
opacity="0.996" fill="rgb(191,159,176)" fill-rule="evenodd" />
<path d="
M 114.731 389.723
C 115.766 389.055 115.876 391.174 115.568 391.789
C 115.211 392.927 115.961 394.733 115.751 396.083
C 114.436 404.534 115.76 413.42 115.212 422.003
C 114.975 422.964 113.655 425.93 115.078 426.508
C 115.495 426.677 116.14 425.636 116.326 425.4
C 117.418 424.016 118.526 422.745 119.794 421.515
C 123.772 417.655 127.531 413.538 131.378 409.547
C 132.676 408.199 135.123 406.472 135.355 404.517
C 135.607 402.382 135.406 400.125 135.445 397.975
C 135.555 391.968 135.559 385.973 135.419 379.961
C 135.175 369.429 135.468 358.892 135.671 348.362
C 135.769 343.219 135.43 337.989 135.875 332.866
C 135.927 332.146 136.177 331.848 136.599 331.272
C 138.085 332.811 137.305 336.516 137.298 338.492
C 137.273 344.992 137.281 351.492 137.247 357.992
C 137.185 369.463 137.135 380.946 137.235 392.415
C 137.262 395.514 137.277 398.614 137.318 401.712
C 137.336 403.051 137.697 405 137.022 406.227
C 135.426 409.131 132.332 411.633 130.033 413.972
C 125.485 418.596 120.767 423.045 116.262 427.71
C 115.749 428.222 114.328 430.416 113.514 430.155
C 113.1 429.036 113.395 427.685 113.368 426.506
C 113.306 423.801 113.521 421.106 113.532 418.4
C 113.555 413.046 113.573 407.695 113.465 402.341
C 113.39 398.641 113.012 394.729 113.48 391.052
C 113.823 390.519 114.242 390.123 114.731 389.723 Z"
opacity="0.996" fill="rgb(46,49,52)" fill-rule="evenodd" />
<path d="
M 129.224 371.508
C 129.793 373.045 131.131 369.664 131.302 369.515
C 132.209 370.965 131.565 373.385 131.354 374.977
C 130.861 378.684 128.397 380.929 125.738 383.336
C 122.717 386.071 119.389 388.757 116.692 391.809
C 116.298 393.128 116.685 394.616 116.541 395.986
C 115.906 402.043 116.272 408.395 116.338 414.513
C 116.356 416.179 117.054 421.272 115.212 422.003
C 115.76 413.42 114.436 404.534 115.751 396.083
C 115.961 394.733 115.211 392.927 115.568 391.789
C 115.876 391.174 115.766 389.055 114.731 389.723
C 117.736 386.114 121.853 383.245 125.192 379.931
C 126.365 378.767 128.307 377.264 128.982 375.729
C 129.502 374.549 129.224 372.771 129.224 371.508 Z"
opacity="1" fill="rgb(161,155,162)" fill-rule="evenodd" />
<path d="
M 115.212 422.003
C 117.054 421.272 116.356 416.179 116.338 414.513
C 116.272 408.395 115.906 402.043 116.541 395.986
C 116.685 394.616 116.298 393.128 116.692 391.809
C 119.389 388.757 122.717 386.071 125.738 383.336
C 128.397 380.929 130.861 378.684 131.354 374.977
C 131.565 373.385 132.209 370.965 131.302 369.515
C 131.131 369.664 129.793 373.045 129.224 371.508
C 129.227 363.678 128.948 355.846 129.151 348.015
C 129.733 347.496 130.09 347.311 129.982 346.47
C 129.834 344.232 126.645 341.854 124.831 340.827
C 124.49 339.688 126.725 337.839 127.517 337.097
C 127.961 338.291 129.192 338.271 130.085 337.619
C 132.017 336.207 133.476 333.518 135.875 332.866
C 135.43 337.989 135.769 343.219 135.671 348.362
C 135.468 358.892 135.175 369.429 135.419 379.961
C 135.559 385.973 135.555 391.968 135.445 397.975
C 135.406 400.125 135.607 402.382 135.355 404.517
C 135.123 406.472 132.676 408.199 131.378 409.547
C 127.531 413.538 123.772 417.655 119.794 421.515
C 118.526 422.745 117.418 424.016 116.326 425.4
C 116.14 425.636 115.495 426.677 115.078 426.508
C 113.655 425.93 114.975 422.964 115.212 422.003 Z"
opacity="1" fill="rgb(111,111,113)" fill-rule="evenodd" />
<path d="
M 177.585 303.861
C 175.05 304.08 179.263 306.847 179.664 307.315
C 179.739 307.507 179.974 307.719 179.87 307.897
C 179.675 308.232 178.955 307.784 178.759 307.728
C 177.618 307.399 176.461 307.375 175.29 307.494
C 171.9 307.84 168.404 307.622 164.999 307.629
C 157.696 307.643 150.394 307.571 143.091 307.628
C 139.64 307.655 135.998 307.281 132.586 307.892
C 131.409 308.353 130.52 309.648 129.693 310.578
C 127.862 312.639 126.143 314.805 124.46 316.985
C 123.447 318.298 122.706 319.848 121.147 320.483
C 120.339 315.767 123.719 313.218 126.695 310.094
C 128.51 308.188 130.2 304.804 132.625 303.696
C 135.148 302.542 139.324 303.234 142.047 303.25
C 148.66 303.288 155.27 303.299 161.883 303.213
C 165.334 303.168 168.825 303.281 172.269 303.04
C 174.052 302.914 176.172 302.555 177.585 303.861 Z"
opacity="1" fill="rgb(136,137,139)" fill-rule="evenodd" />
<path d="
M 121.147 320.483
C 122.706 319.848 123.447 318.298 124.46 316.985
C 126.143 314.805 127.862 312.639 129.693 310.578
C 130.52 309.648 131.409 308.353 132.586 307.892
C 135.998 307.281 139.64 307.655 143.091 307.628
C 150.394 307.571 157.696 307.643 164.999 307.629
C 168.404 307.622 171.9 307.84 175.29 307.494
C 176.461 307.375 177.618 307.399 178.759 307.728
C 178.955 307.784 179.675 308.232 179.87 307.897
C 179.974 307.719 179.739 307.507 179.664 307.315
C 179.263 306.847 175.05 304.08 177.585 303.861
C 179.374 305.004 180.992 306.45 182.518 307.919
C 182.839 308.228 184.086 309.271 183.843 309.68
C 179.736 309.926 175.603 309.491 171.492 309.446
C 159.016 309.311 146.354 308.685 133.912 309.711
C 132.432 309.833 131.593 311.166 130.734 312.251
C 128.567 314.99 126.293 317.65 123.87 320.168
C 123.53 320.522 121.142 323.401 120.83 322.727
C 120.933 321.979 120.956 321.215 121.147 320.483 Z"
opacity="1" fill="rgb(21,25,19)" fill-rule="evenodd" />
<path d="
M 129.762 221.218
C 129.912 222.403 129.438 223.289 129.478 224.455
C 127.883 224.253 126.696 226.85 125.813 227.973
C 124.984 229.027 123.678 229.942 123.027 231.11
C 122.54 231.986 122.944 233.631 122.963 234.585
C 123.017 237.387 122.971 240.196 122.939 242.997
C 122.888 247.285 122.415 251.726 122.889 256
C 123.084 257.761 123.672 259.417 123.697 261.208
C 123.738 264.124 122.803 266.889 122.751 269.806
C 122.673 274.181 122.591 278.683 122.878 283.05
C 122.96 284.309 123.407 285.487 123.415 286.788
C 123.441 290.914 123.304 295.215 122.975 299.327
C 122.726 302.442 122.2 305.401 122.562 308.453
C 123.232 308.406 123.675 307.407 124.001 306.916
C 125.039 305.351 126.294 303.941 127.311 302.357
C 128.466 301.021 129.322 299.209 131 298.412
C 132.589 297.657 134.889 298.051 136.594 298.062
C 140.563 298.089 144.538 297.925 148.507 297.875
C 150.664 297.848 152.846 297.722 155.002 297.804
C 155.469 297.822 158.865 298.329 158.543 297.789
C 157.946 297.094 157.053 296.74 156.402 296.087
C 154.072 293.748 151.617 291.532 149.172 289.314
C 147.911 288.073 146.618 286.875 145.452 285.543
C 145.125 284.791 144.896 284.598 145.025 283.716
C 147.03 283.892 148.961 286.726 150.319 288.078
C 154.291 292.034 158.768 295.433 162.624 299.508
C 160.622 300.538 156.719 299.741 154.496 299.754
C 149.511 299.782 144.525 299.752 139.54 299.769
C 137.275 299.777 134.694 299.412 132.473 299.93
C 131.18 300.232 130.311 301.792 129.516 302.757
C 127.679 304.988 125.94 307.292 124.026 309.46
C 123.64 309.898 121.582 312.781 121.229 312.101
C 121.657 306.317 121.052 300.299 121.055 294.484
C 121.061 281.155 121.055 267.827 121.055 254.499
C 121.055 249.203 121.123 243.907 121.106 238.611
C 121.098 236.279 120.584 233.282 121.333 231.049
C 122.969 228.666 124.934 226.573 126.842 224.411
C 127.8 223.325 128.404 221.867 129.762 221.218 Z"
opacity="0.996" fill="rgb(82,81,82)" fill-rule="evenodd" />
<path d="
M 162.54 313.313
C 161.985 315.387 158.177 315.195 156.504 315.311
C 152.124 315.612 147.755 315.54 143.38 315.75
C 141.258 315.851 139.396 316.28 138.788 318.564
C 138.672 319.872 139.417 320.975 140.33 321.853
C 141.235 322.456 142.016 322.898 143.123 322.96
C 142.921 323.235 142.703 323.43 142.483 323.685
C 138.944 323.879 135.372 324.104 131.837 323.727
C 130.574 323.913 129.798 324.749 128.933 325.625
C 127 327.582 125.001 329.886 123.465 332.171
C 122.654 333.375 122.491 334.353 121.143 335.016
C 121.128 332.707 120.657 330.074 121.204 327.82
C 121.811 327.133 122.459 326.49 123.1 325.835
C 125.782 322.952 128.166 319.803 130.878 316.952
C 131.95 315.825 133.117 314.253 134.536 313.562
C 136.638 312.538 140.032 313.014 142.328 312.911
C 148.952 312.614 155.929 312.799 162.54 313.313 Z"
opacity="1" fill="rgb(131,133,133)" fill-rule="evenodd" />
<path d="
M 121.143 335.016
C 122.491 334.353 122.654 333.375 123.465 332.171
C 125.001 329.886 127 327.582 128.933 325.625
C 129.798 324.749 130.574 323.913 131.837 323.727
C 135.372 324.104 138.944 323.879 142.483 323.685
C 144.415 323.553 146.333 323.32 148.266 323.221
C 148.554 323.206 149.682 323.265 149.841 322.96
C 148.56 322.278 146.095 322.955 144.617 322.842
C 144.164 322.808 143.498 322.638 143.123 322.96
C 142.016 322.898 141.235 322.456 140.33 321.853
C 139.417 320.975 138.672 319.872 138.788 318.564
C 139.396 316.28 141.258 315.851 143.38 315.75
C 147.755 315.54 152.124 315.612 156.504 315.311
C 158.177 315.195 161.985 315.387 162.54 313.313
C 162.892 313.286 163.831 312.925 163.864 313.494
C 163.886 313.868 163.268 314.362 163.056 314.609
C 162.004 315.832 160.878 317.273 159.168 317.526
C 157.701 317.744 156.144 317.392 154.672 317.329
C 151.781 317.206 148.875 317.28 145.982 317.31
C 144.205 317.328 142.511 317.176 140.838 317.884
C 140.436 318.878 140.771 320.227 141.263 321.144
C 142.237 321.708 143.707 321.539 144.815 321.532
C 147.657 321.514 150.486 321.243 153.318 321.21
C 153.095 322.729 150.994 325.408 149.431 325.693
C 147.85 325.981 146.093 325.686 144.494 325.652
C 140.383 325.566 135.96 325.244 131.88 325.751
C 131.126 326.262 130.538 327.119 129.939 327.806
C 127.895 330.044 125.932 332.366 123.85 334.565
C 122.992 335.471 121.21 337.581 121.143 335.016 Z"
opacity="1" fill="rgb(34,36,33)" fill-rule="evenodd" />
<path d="
M 129.478 224.455
C 129.339 225.449 129.204 226.481 129.176 227.485
C 127.29 228.459 125.799 230.305 124.591 232.148
C 123.899 237.307 124.384 242.748 124.233 247.956
C 123.861 260.784 123.866 273.616 123.786 286.446
C 123.757 291.039 123.588 295.972 124.168 300.531
C 124.282 301.43 126.522 302.681 127.311 302.357
C 126.294 303.941 125.039 305.351 124.001 306.916
C 123.675 307.407 123.232 308.406 122.562 308.453
C 122.2 305.401 122.726 302.442 122.975 299.327
C 123.304 295.215 123.441 290.914 123.415 286.788
C 123.407 285.487 122.96 284.309 122.878 283.05
C 122.591 278.683 122.673 274.181 122.751 269.806
C 122.803 266.889 123.738 264.124 123.697 261.208
C 123.672 259.417 123.084 257.761 122.889 256
C 122.415 251.726 122.888 247.285 122.939 242.997
C 122.971 240.196 123.017 237.387 122.963 234.585
C 122.944 233.631 122.54 231.986 123.027 231.11
C 123.678 229.942 124.984 229.027 125.813 227.973
C 126.696 226.85 127.883 224.253 129.478 224.455 Z"
opacity="0.996" fill="rgb(173,167,171)" fill-rule="evenodd" />
<path d="
M 129.176 227.485
C 130.166 238.842 129.784 250.601 129.77 262.004
C 129.765 265.842 129.749 269.68 129.687 273.516
C 129.648 275.944 129.378 278.631 129.957 281.01
C 130.327 282.529 131.805 283.252 132.356 284.501
C 132.332 285.479 132.42 286.207 133.466 286.425
C 134.822 286.425 136.142 286.611 137.495 286.438
C 138.501 286.535 139.498 286.691 140.508 286.748
C 142.688 286.845 144.077 286.998 145.882 288.265
C 146.473 288.68 146.781 289.999 147.424 290.146
C 147.94 290.265 148.707 289.45 149.172 289.314
C 151.617 291.532 154.072 293.748 156.402 296.087
C 157.053 296.74 157.946 297.094 158.543 297.789
C 158.865 298.329 155.469 297.822 155.002 297.804
C 152.846 297.722 150.664 297.848 148.507 297.875
C 144.538 297.925 140.563 298.089 136.594 298.062
C 134.889 298.051 132.589 297.657 131 298.412
C 129.322 299.209 128.466 301.021 127.311 302.357
C 126.522 302.681 124.282 301.43 124.168 300.531
C 123.588 295.972 123.757 291.039 123.786 286.446
C 123.866 273.616 123.861 260.784 124.233 247.956
C 124.384 242.748 123.899 237.307 124.591 232.148
C 125.799 230.305 127.29 228.459 129.176 227.485 Z"
opacity="1" fill="rgb(122,122,123)" fill-rule="evenodd" />
<path d="
M 124.831 340.827
C 126.645 341.854 129.834 344.232 129.982 346.47
C 130.09 347.311 129.733 347.496 129.151 348.015
C 129.013 344.585 125.526 344.303 124.184 341.722
C 123.766 340.918 124.121 341.086 124.831 340.827 Z"
opacity="1" fill="rgb(74,72,74)" fill-rule="evenodd" />
<path d="
M 136.599 331.272
C 136.177 331.848 135.927 332.146 135.875 332.866
C 133.476 333.518 132.017 336.207 130.085 337.619
C 129.192 338.271 127.961 338.291 127.517 337.097
C 128.716 335.106 132.064 331.306 134.535 330.93
C 135.268 330.819 135.892 331.24 136.599 331.272 Z"
opacity="1" fill="rgb(142,143,144)" fill-rule="evenodd" />
<path d="
M 129.762 221.218
C 130.005 220.382 130.562 219.708 131.287 219.249
C 131.883 219.473 131.417 222.226 131.415 222.778
C 131.397 226.679 131.284 230.588 131.226 234.49
C 131.048 246.487 131.168 258.486 131.154 270.484
C 131.149 274.041 129.785 281.041 132.961 283.562
C 133.591 284.03 132.82 284.277 132.356 284.501
C 131.805 283.252 130.327 282.529 129.957 281.01
C 129.378 278.631 129.648 275.944 129.687 273.516
C 129.749 269.68 129.765 265.842 129.77 262.004
C 129.784 250.601 130.166 238.842 129.176 227.485
C 129.204 226.481 129.339 225.449 129.478 224.455
C 129.438 223.289 129.912 222.403 129.762 221.218 Z"
opacity="1" fill="rgb(26,29,35)" fill-rule="evenodd" />
<path d="
M 132.356 284.501
C 132.82 284.277 133.591 284.03 132.961 283.562
C 136.791 284.504 141.115 283.377 145.025 283.716
C 144.896 284.598 145.125 284.791 145.452 285.543
C 144.472 284.544 139.204 284.495 140.508 286.748
C 139.498 286.691 138.501 286.535 137.495 286.438
C 136.64 285.483 134.382 285.667 133.466 286.425
C 132.42 286.207 132.332 285.479 132.356 284.501 Z"
opacity="1" fill="rgb(142,149,146)" fill-rule="evenodd" />
<path d="
M 137.495 286.438
C 136.142 286.611 134.822 286.425 133.466 286.425
C 134.382 285.667 136.64 285.483 137.495 286.438 Z"
opacity="1" fill="rgb(168,170,172)" fill-rule="evenodd" />
<path d="
M 145.452 285.543
C 146.618 286.875 147.911 288.073 149.172 289.314
C 148.707 289.45 147.94 290.265 147.424 290.146
C 146.781 289.999 146.473 288.68 145.882 288.265
C 144.077 286.998 142.688 286.845 140.508 286.748
C 139.204 284.495 144.472 284.544 145.452 285.543 Z"
opacity="1" fill="rgb(179,176,171)" fill-rule="evenodd" />
<path d="
M 143.123 322.96
C 143.498 322.638 144.164 322.808 144.617 322.842
C 146.095 322.955 148.56 322.278 149.841 322.96
C 149.682 323.265 148.554 323.206 148.266 323.221
C 146.333 323.32 144.415 323.553 142.483 323.685
C 142.703 323.43 142.921 323.235 143.123 322.96 Z"
opacity="1" fill="rgb(255,254,255)" fill-rule="evenodd" />
<path d="
M 173.14 383.615
C 172.632 384.171 170.844 384.925 171.651 385.828
C 173.101 387.452 177.077 387.169 179.023 387.107
C 183.055 386.979 187.067 386.956 191.11 386.923
C 194.285 386.898 197.603 386.753 200.014 384.415
C 204.078 380.476 203.785 375.214 203.687 370.009
C 203.532 361.714 203.144 353.227 203.85 344.952
C 205.117 344.379 207.56 344.979 208.477 343.899
C 209.262 344.028 210.144 344.254 210.89 344.503
C 210.883 345.5 210.857 346.498 210.828 347.495
C 210.403 346.934 209.831 347.623 209.668 348.064
C 209.397 348.799 210.505 349.531 209.99 350.366
C 209.179 351.683 210.045 352.505 210.018 353.954
C 210 354.907 209.398 355.655 209.226 356.569
C 208.999 357.769 209.103 359.059 209.048 360.276
C 208.719 367.586 210.727 375.573 207.942 382.524
C 206.901 385.124 205.923 387.615 203.589 389.374
C 200.07 392.027 195.443 392.23 191.238 392.404
C 187.497 392.56 183.753 392.714 180.01 392.752
C 176.916 392.783 173.871 393.007 170.87 392.205
C 168.011 391.441 165.152 389.705 163.237 387.406
C 162.437 386.445 161.839 385.339 161.037 384.383
C 160.663 383.936 159.961 383.198 159.688 384.112
C 158.208 380.831 158.526 377.494 157.982 374.054
C 160.199 373.333 163.185 373.905 165.503 373.893
C 166.385 373.889 167.599 373.632 168.408 373.96
C 168.383 376.275 168.103 378.921 169.557 380.914
C 170.477 382.175 171.864 382.825 173.14 383.615 Z
M 163.475 376.331
C 166.194 375.892 163.055 374.938 162.561 375.937
C 161.54 375.805 159.511 374.801 159.841 376.602
C 160.422 377.5 162.733 376.867 163.475 376.331 Z"
opacity="1" fill="rgb(28,60,96)" fill-rule="evenodd" />
<path d="
M 162.561 375.937
C 163.019 375.977 163.253 375.92 163.475 376.331
C 162.733 376.867 160.422 377.5 159.841 376.602
C 159.511 374.801 161.54 375.805 162.561 375.937 Z"
opacity="0.996" fill="rgb(103,127,173)" fill-rule="evenodd" />
<path d="
M 210.828 347.495
C 210.678 354.994 210.921 362.498 210.888 369.998
C 210.856 376.947 210.983 383.041 206.355 388.752
C 202.221 393.854 195.398 394.332 189.348 394.335
C 179.29 394.342 164.063 396.093 159.688 384.112
C 159.961 383.198 160.663 383.936 161.037 384.383
C 161.839 385.339 162.437 386.445 163.237 387.406
C 165.152 389.705 168.011 391.441 170.87 392.205
C 173.871 393.007 176.916 392.783 180.01 392.752
C 183.753 392.714 187.497 392.56 191.238 392.404
C 195.443 392.23 200.07 392.027 203.589 389.374
C 205.923 387.615 206.901 385.124 207.942 382.524
C 210.727 375.573 208.719 367.586 209.048 360.276
C 209.103 359.059 208.999 357.769 209.226 356.569
C 209.398 355.655 210 354.907 210.018 353.954
C 210.045 352.505 209.179 351.683 209.99 350.366
C 210.505 349.531 209.397 348.799 209.668 348.064
C 209.831 347.623 210.403 346.934 210.828 347.495 Z"
opacity="1" fill="rgb(14,27,38)" fill-rule="evenodd" />
<path d="
M 163.475 376.331
C 163.253 375.92 163.019 375.977 162.561 375.937
C 163.055 374.938 166.194 375.892 163.475 376.331 Z"
opacity="1" fill="rgb(63,96,127)" fill-rule="evenodd" />
<path d="
M 173.14 383.615
C 178.813 384.673 184.805 384.163 190.557 384.135
C 193.464 384.121 196.612 384.205 198.782 381.92
C 201.666 378.884 201.092 373.622 201.106 369.769
C 201.141 360.332 201.307 350.822 200.941 341.4
C 203.349 340.941 206.04 341.251 208.495 341.213
C 207.756 341.843 208.344 343.152 208.477 343.899
C 207.56 344.979 205.117 344.379 203.85 344.952
C 203.144 353.227 203.532 361.714 203.687 370.009
C 203.785 375.214 204.078 380.476 200.014 384.415
C 197.603 386.753 194.285 386.898 191.11 386.923
C 187.067 386.956 183.055 386.979 179.023 387.107
C 177.077 387.169 173.101 387.452 171.651 385.828
C 170.844 384.925 172.632 384.171 173.14 383.615 Z"
opacity="0.996" fill="rgb(85,122,155)" fill-rule="evenodd" />
<path d="
M 208.495 341.213
C 209.205 341.188 210.363 340.971 210.914 341.439
C 210.837 342.46 210.862 343.482 210.89 344.503
C 210.144 344.254 209.262 344.028 208.477 343.899
C 208.344 343.152 207.756 341.843 208.495 341.213 Z"
opacity="1" fill="rgb(26,61,81)" fill-rule="evenodd" />
<path d="
M 269.016 341.265
C 270.401 342.06 268.68 343.357 267.88 343.809
C 265.832 344.966 263.212 344.356 260.937 344.335
C 253.958 344.268 246.977 344.237 239.997 344.221
C 236.552 344.214 233.007 343.914 229.575 344.266
C 224.849 344.75 220.604 348.398 219.448 352.985
C 219.02 354.686 219.394 357.331 218.661 358.842
C 218.304 359.578 216.204 358.669 216.09 358.006
C 215.701 351.67 218.952 344.34 225.424 342.303
C 230.715 340.638 236.566 341.318 242.03 341.335
C 251.024 341.362 260.022 341.334 269.016 341.265 Z"
opacity="0.996" fill="rgb(94,130,162)" fill-rule="evenodd" />
<path d="
M 216.09 358.006
C 216.204 358.669 218.304 359.578 218.661 358.842
C 219.394 357.331 219.02 354.686 219.448 352.985
C 220.604 348.398 224.849 344.75 229.575 344.266
C 233.007 343.914 236.552 344.214 239.997 344.221
C 246.977 344.237 253.958 344.268 260.937 344.335
C 263.212 344.356 265.832 344.966 267.88 343.809
C 268.68 343.357 270.401 342.06 269.016 341.265
C 269.154 341.258 270.062 341.208 270.099 341.227
C 270.479 341.422 269.983 343.314 269.955 343.626
C 269.734 346.109 270.179 348.718 269.97 351.172
C 269.398 351.365 268.602 351.213 267.996 351.213
C 266.993 350.828 265.977 351.372 264.996 351.134
C 264.306 350.967 264.4 350.266 263.803 349.964
C 262.599 349.354 260.323 349.844 259.013 349.863
C 255.2 349.92 251.321 349.507 247.518 349.839
C 246.062 349.966 245.785 351.193 244.175 351.209
C 242.542 351.226 240.597 351.444 238.994 351.104
C 238.228 350.942 238.256 350.061 237.437 349.931
C 235.022 349.546 231.887 349.451 229.458 349.641
C 226.029 350.488 224.037 354.092 224.197 357.463
C 224.257 358.722 224.724 359.954 225.788 360.715
C 226.087 360.929 227.336 361.563 227.522 360.963
C 227.877 361.268 228.222 361.58 228.563 361.9
C 229.191 362.742 227.933 363.499 229.142 364.474
C 230.999 365.971 234.532 365.395 236.752 365.363
C 243.168 365.272 249.59 365.344 256.006 365.39
C 258.081 365.405 260.151 365.443 262.221 365.588
C 262.577 365.613 264.578 365.805 264.751 365.676
C 265.302 365.266 264.337 364.171 265.167 364.215
C 266.26 364.726 267.288 365.519 268.073 366.432
C 267.296 365.943 266.702 366.991 267.026 367.668
C 267.333 368.31 268.157 368.646 268.575 369.231
C 269.447 370.452 270.093 372.256 270.477 373.695
C 271.796 378.63 271.291 385.225 267.203 388.848
C 263.364 392.249 258.3 392.289 253.484 392.38
C 245.824 392.525 238.159 392.537 230.498 392.66
C 227.698 392.705 224.896 392.689 222.097 392.623
C 221.123 392.6 219.517 392.796 218.666 392.333
C 218.568 390.623 218.861 389.101 218.928 387.435
C 219.688 386.854 220.958 386.85 221.899 386.792
C 224.26 386.647 226.637 386.674 229.002 386.648
C 237.747 386.552 246.499 386.719 255.245 386.675
C 258.284 386.66 261.541 386.502 263.336 383.699
C 264.289 382.211 264.746 380.49 264.633 378.735
C 264.571 377.765 264.205 376.079 262.746 377.521
C 262.495 375.23 261.424 373.69 259.495 372.495
C 260.139 372.146 260.474 370.991 259.611 370.694
C 258.499 370.312 257.164 370.416 256.007 370.421
C 250.692 370.443 245.38 370.409 240.065 370.471
C 234.53 370.535 227.997 371.409 222.991 368.547
C 221.633 367.771 220.393 366.745 219.59 365.385
C 218.669 363.826 219.115 361.146 216.581 361.572
C 216.341 360.382 216.164 359.219 216.09 358.006 Z"
opacity="1" fill="rgb(28,66,101)" fill-rule="evenodd" />
<path d="
M 216.581 361.572
C 219.115 361.146 218.669 363.826 219.59 365.385
C 220.393 366.745 221.633 367.771 222.991 368.547
C 227.997 371.409 234.53 370.535 240.065 370.471
C 245.38 370.409 250.692 370.443 256.007 370.421
C 257.164 370.416 258.499 370.312 259.611 370.694
C 260.474 370.991 260.139 372.146 259.495 372.495
C 256.998 371.905 254.061 372.241 251.505 372.259
C 249.005 372.276 246.506 372.277 244.006 372.291
C 235.349 372.337 222.84 374.375 217.903 365.186
C 217.295 364.053 216.85 362.828 216.581 361.572 Z"
opacity="1" fill="rgb(13,28,40)" fill-rule="evenodd" />
<path d="
M 262.746 377.521
C 264.205 376.079 264.571 377.765 264.633 378.735
C 264.746 380.49 264.289 382.211 263.336 383.699
C 261.541 386.502 258.284 386.66 255.245 386.675
C 246.499 386.719 237.747 386.552 229.002 386.648
C 226.637 386.674 224.26 386.647 221.899 386.792
C 220.958 386.85 219.688 386.854 218.928 387.435
C 218.492 386.561 217.738 387.052 217.1 386.495
C 217.061 385.716 217.032 384.989 217.152 384.215
C 220.896 383.878 224.736 384.17 228.499 384.177
C 236.331 384.193 244.168 384.242 252 384.183
C 255.758 384.155 261.572 384.664 262.68 379.904
C 262.861 379.125 262.795 378.31 262.746 377.521 Z"
opacity="1" fill="rgb(92,116,151)" fill-rule="evenodd" />
<path d="
M 217.1 386.495
C 217.738 387.052 218.492 386.561 218.928 387.435
C 218.861 389.101 218.568 390.623 218.666 392.333
C 219.517 392.796 221.123 392.6 222.097 392.623
C 224.896 392.689 227.698 392.705 230.498 392.66
C 238.159 392.537 245.824 392.525 253.484 392.38
C 258.3 392.289 263.364 392.249 267.203 388.848
C 271.291 385.225 271.796 378.63 270.477 373.695
C 270.093 372.256 269.447 370.452 268.575 369.231
C 268.157 368.646 267.333 368.31 267.026 367.668
C 266.702 366.991 267.296 365.943 268.073 366.432
C 275.334 373.439 273.903 388.509 264.386 392.758
C 260.337 394.565 255.827 394.201 251.498 394.203
C 244.499 394.207 237.501 394.192 230.502 394.206
C 227.669 394.212 224.838 394.229 222.007 394.267
C 220.475 394.287 218.671 394.564 217.192 394.149
C 216.997 391.611 217.138 389.041 217.1 386.495 Z"
opacity="1" fill="rgb(9,15,17)" fill-rule="evenodd" />
<path d="
M 267.996 351.213
C 260.163 351.194 252.331 351.285 244.497 351.22
C 239.898 351.182 234.987 350.649 230.427 351.312
C 225.616 352.012 225.288 357.681 227.522 360.963
C 227.336 361.563 226.087 360.929 225.788 360.715
C 224.724 359.954 224.257 358.722 224.197 357.463
C 224.037 354.092 226.029 350.488 229.458 349.641
C 231.887 349.451 235.022 349.546 237.437 349.931
C 238.256 350.061 238.228 350.942 238.994 351.104
C 240.597 351.444 242.542 351.226 244.175 351.209
C 245.785 351.193 246.062 349.966 247.518 349.839
C 251.321 349.507 255.2 349.92 259.013 349.863
C 260.323 349.844 262.599 349.354 263.803 349.964
C 264.4 350.266 264.306 350.967 264.996 351.134
C 265.977 351.372 266.993 350.828 267.996 351.213 Z"
opacity="0.996" fill="rgb(38,56,79)" fill-rule="evenodd" />
<path d="
M 228.563 361.9
C 230.843 363.098 234.56 362.399 237.06 362.376
C 243.365 362.318 249.705 362.178 256.007 362.388
C 259.03 362.489 262.589 362.387 265.167 364.215
C 264.337 364.171 265.302 365.266 264.751 365.676
C 264.578 365.805 262.577 365.613 262.221 365.588
C 260.151 365.443 258.081 365.405 256.006 365.39
C 249.59 365.344 243.168 365.272 236.752 365.363
C 234.532 365.395 230.999 365.971 229.142 364.474
C 227.933 363.499 229.191 362.742 228.563 361.9 Z"
opacity="0.996" fill="rgb(91,135,165)" fill-rule="evenodd" />
<path d="
M 273.685 392.831
C 274.533 392.904 275.469 393.01 276.295 392.771
C 278.564 393.13 281.068 394.922 283.24 393.06
C 284.162 389.278 287.001 385.522 288.955 382.192
C 292.224 376.618 295.271 370.836 298.332 365.144
C 300.413 361.276 302.206 357.213 304.534 353.484
C 304.882 352.927 305.398 352.037 306.069 351.816
C 306.518 351.667 307.414 351.721 307.324 352.344
C 304.567 355.73 302.845 360.102 300.701 363.892
C 296.855 370.691 293.152 377.565 289.378 384.404
C 288.212 386.517 286.988 388.615 285.888 390.764
C 285.324 391.865 284.729 393.374 283.817 394.225
C 281.187 394.489 278.342 394.053 275.682 394.128
C 275.378 394.137 273.128 394.312 273.002 394.101
C 272.893 393.917 273.555 392.999 273.685 392.831 Z"
opacity="1" fill="rgb(10,24,38)" fill-rule="evenodd" />
<path d="
M 342.527 394.219
C 341.122 392.725 340.535 391.016 339.516 389.298
C 337.3 385.564 335.029 381.918 332.951 378.098
C 329.071 370.964 324.719 364.081 320.895 356.915
C 319.212 353.76 317.276 350.73 315.658 347.544
C 315.039 346.323 314.166 344.331 312.657 344.03
C 309.409 344.783 306.172 343.218 303.237 345.467
C 301.531 346.774 300.469 348.881 299.487 350.739
C 297.811 353.91 296.162 357.1 294.439 360.246
C 290.008 368.331 285.664 376.461 281.233 384.549
C 279.72 387.31 277.641 389.985 276.295 392.771
C 275.469 393.01 274.533 392.904 273.685 392.831
C 275.518 388.624 278.058 384.561 280.245 380.522
C 285.207 371.355 290.201 362.211 295.296 353.117
C 296.676 350.655 297.926 348.124 299.36 345.691
C 300.097 344.44 300.783 342.998 302.085 342.237
C 304.419 340.871 307.926 341.063 310.513 341.411
C 315.178 342.038 316.807 346.273 318.89 349.947
C 323.621 358.29 328 366.883 332.864 375.14
C 335.677 379.914 338.429 384.734 341.187 389.54
C 341.822 390.647 342.376 391.811 343.063 392.886
C 343.144 393.012 344.095 394.185 343.892 394.288
C 343.622 394.424 342.836 394.24 342.527 394.219 Z"
opacity="1" fill="rgb(63,89,115)" fill-rule="evenodd" />
<path d="
M 342.527 394.219
C 339.203 394.157 335.416 394.86 332.158 394.261
C 331.303 393.738 330.968 392.573 330.574 391.701
C 329.817 390.025 328.662 388.375 328.149 386.615
C 328.299 386.263 328.841 385.927 328.802 385.535
C 328.53 382.828 325.343 383.146 323.466 383.303
C 315.939 383.928 308.363 383.482 300.853 383.692
C 301.107 382.261 302.914 378.769 304.039 377.882
C 308.978 377.667 314.005 377.829 318.981 377.725
C 319.867 377.706 323.125 378.091 323.494 377.103
C 323.056 376.249 321.904 375.789 321.066 375.394
C 322.14 375.108 320.76 373.725 320.42 373.054
C 319.185 370.618 317.63 368.365 316.35 365.954
C 314.394 362.27 312.488 358.558 310.543 354.869
C 309.776 353.413 309.007 351.089 307.324 352.344
C 307.414 351.721 306.518 351.667 306.069 351.816
C 305.398 352.037 304.882 352.927 304.534 353.484
C 302.206 357.213 300.413 361.276 298.332 365.144
C 295.271 370.836 292.224 376.618 288.955 382.192
C 287.001 385.522 284.162 389.278 283.24 393.06
C 281.068 394.922 278.564 393.13 276.295 392.771
C 277.641 389.985 279.72 387.31 281.233 384.549
C 285.664 376.461 290.008 368.331 294.439 360.246
C 296.162 357.1 297.811 353.91 299.487 350.739
C 300.469 348.881 301.531 346.774 303.237 345.467
C 306.172 343.218 309.409 344.783 312.657 344.03
C 314.166 344.331 315.039 346.323 315.658 347.544
C 317.276 350.73 319.212 353.76 320.895 356.915
C 324.719 364.081 329.071 370.964 332.951 378.098
C 335.029 381.918 337.3 385.564 339.516 389.298
C 340.535 391.016 341.122 392.725 342.527 394.219 Z"
opacity="1" fill="rgb(31,72,106)" fill-rule="evenodd" />
<path d="
M 297.666 383.813
C 298.325 383.563 299.971 383.82 300.853 383.692
C 308.363 383.482 315.939 383.928 323.466 383.303
C 325.343 383.146 328.53 382.828 328.802 385.535
C 328.841 385.927 328.299 386.263 328.149 386.615
C 327.719 386.179 327.496 385.611 327.065 385.152
C 320.24 385.524 313.342 385.251 306.508 385.276
C 303.296 385.288 299.958 385.694 296.797 385.566
C 297.044 384.964 297.39 384.406 297.666 383.813 Z"
opacity="1" fill="rgb(21,20,36)" fill-rule="evenodd" />
<path d="
M 321.066 375.394
C 321.904 375.789 323.056 376.249 323.494 377.103
C 323.125 378.091 319.867 377.706 318.981 377.725
C 314.005 377.829 308.978 377.667 304.039 377.882
C 302.914 378.769 301.107 382.261 300.853 383.692
C 299.971 383.82 298.325 383.563 297.666 383.813
C 298.901 381.199 299.901 377.838 301.631 375.541
C 307.977 374.987 314.692 375.253 321.066 375.394 Z"
opacity="1" fill="rgb(75,115,148)" fill-rule="evenodd" />
<path d="
M 419.027 341.248
C 417.92 342.869 417.367 343.383 415.407 343.822
C 412.739 344.799 409.295 344.083 406.486 344.099
C 400.023 344.134 393.508 344.379 387.051 344.037
C 381.63 343.751 375.784 343.685 372.003 348.383
C 368.357 352.912 368.247 357.371 368.046 362.922
C 367.832 368.862 368.056 374.814 368.037 380.768
C 368.027 383.76 367.867 386.768 367.715 389.757
C 367.687 390.297 367.747 392.667 367.479 392.835
C 366.796 393.512 366.156 393.561 365.228 393.538
C 364.834 383.75 365.169 373.813 365.15 364.005
C 365.137 357.069 365.321 349.909 370.987 344.966
C 376 340.593 382.458 341.011 388.679 341.103
C 398.794 341.253 408.918 340.993 419.027 341.248 Z"
opacity="1" fill="rgb(177,180,181)" fill-rule="evenodd" />
<path d="
M 365.228 393.538
C 366.156 393.561 366.796 393.512 367.479 392.835
C 368.913 392.699 370.562 392.649 371.996 392.808
C 372.759 392.893 373.175 393.53 373.963 393.427
C 374.19 391.951 373.728 390.056 373.691 388.52
C 373.6 384.689 373.64 380.85 373.606 377.018
C 373.592 375.446 373.029 372.295 374.465 371.282
C 377.793 370.667 381.608 371.156 384.994 371.144
C 392.161 371.12 399.327 371.204 406.495 371.13
C 409.141 371.103 411.784 371.06 414.43 371.096
C 415.139 371.105 416.791 371.461 417.286 370.855
C 417.514 369.077 417.211 367.201 417.655 365.461
C 417.749 364.693 417.808 364.021 418.034 363.28
C 418.196 363.263 419.099 363.166 419.145 363.193
C 419.42 363.354 419.2 365.217 419.198 365.498
C 419.174 367.938 419.401 370.422 419.23 372.855
C 408.909 373.539 398.344 372.94 387.999 372.938
C 385.166 372.937 382.334 372.886 379.501 372.9
C 378.035 372.908 376.424 372.652 375.047 373.233
C 374.822 378.339 374.756 383.638 375.035 388.767
C 375.103 390.019 375.864 393.539 374.966 394.491
C 372.491 394.441 370.018 394.321 367.53 394.328
C 366.486 394.33 365.47 394.794 365.228 393.538 Z"
opacity="0.996" fill="rgb(34,43,38)" fill-rule="evenodd" />
<path d="
M 419.027 341.248
C 419.827 341.209 419.935 341.103 419.956 341.967
C 419.206 341.27 418.327 343.038 418.211 343.609
C 417.799 345.634 418.38 347.707 418.311 349.731
C 410.214 348.858 401.595 349.423 393.448 349.43
C 388.771 349.433 383.489 348.698 378.911 349.808
C 374.346 350.915 373.345 355.403 373.337 359.444
C 373.335 360.584 373.149 364.618 374.813 364.333
C 374.376 365.937 375.725 365.818 376.997 365.835
C 378.992 365.862 380.987 365.901 382.983 365.883
C 393.09 365.656 403.367 366.401 413.445 365.689
C 414.924 365.48 416.206 364.723 417.655 365.461
C 417.211 367.201 417.514 369.077 417.286 370.855
C 416.791 371.461 415.139 371.105 414.43 371.096
C 411.784 371.06 409.141 371.103 406.495 371.13
C 399.327 371.204 392.161 371.12 384.994 371.144
C 381.608 371.156 377.793 370.667 374.465 371.282
C 373.029 372.295 373.592 375.446 373.606 377.018
C 373.64 380.85 373.6 384.689 373.691 388.52
C 373.728 390.056 374.19 391.951 373.963 393.427
C 373.175 393.53 372.759 392.893 371.996 392.808
C 370.562 392.649 368.913 392.699 367.479 392.835
C 367.747 392.667 367.687 390.297 367.715 389.757
C 367.867 386.768 368.027 383.76 368.037 380.768
C 368.056 374.814 367.832 368.862 368.046 362.922
C 368.247 357.371 368.357 352.912 372.003 348.383
C 375.784 343.685 381.63 343.751 387.051 344.037
C 393.508 344.379 400.023 344.134 406.486 344.099
C 409.295 344.083 412.739 344.799 415.407 343.822
C 417.367 343.383 417.92 342.869 419.027 341.248 Z"
opacity="1" fill="rgb(137,138,141)" fill-rule="evenodd" />
<path d="
M 419.956 341.967
C 419.762 345.022 420.21 348.215 420.116 351.232
C 417.429 351.752 414.238 351.224 411.501 351.219
C 404.665 351.206 397.829 351.243 390.994 351.206
C 387.249 351.186 383.137 350.675 379.452 351.454
C 375.775 352.23 374.842 356.194 374.855 359.378
C 374.858 360.151 374.686 363.243 375.492 363.322
C 375.153 363.638 374.994 363.903 374.813 364.333
C 373.149 364.618 373.335 360.584 373.337 359.444
C 373.345 355.403 374.346 350.915 378.911 349.808
C 383.489 348.698 388.771 349.433 393.448 349.43
C 401.595 349.423 410.214 348.858 418.311 349.731
C 418.38 347.707 417.799 345.634 418.211 343.609
C 418.327 343.038 419.206 341.27 419.956 341.967 Z"
opacity="1" fill="rgb(69,75,70)" fill-rule="evenodd" />
<path d="
M 374.813 364.333
C 374.994 363.903 375.153 363.638 375.492 363.322
C 384.158 363.166 392.835 363.406 401.504 363.317
C 406.874 363.262 412.717 362.563 418.034 363.28
C 417.808 364.021 417.749 364.693 417.655 365.461
C 416.206 364.723 414.924 365.48 413.445 365.689
C 412.225 364.181 409.183 365.015 407.545 364.994
C 401.72 364.918 394.9 363.592 389.479 365.515
C 387.452 366.234 384.873 363.8 382.983 365.883
C 380.987 365.901 378.992 365.862 376.997 365.835
C 375.725 365.818 374.376 365.937 374.813 364.333 Z"
opacity="1" fill="rgb(175,178,181)" fill-rule="evenodd" />
<path d="
M 413.445 365.689
C 403.367 366.401 393.09 365.656 382.983 365.883
C 384.873 363.8 387.452 366.234 389.479 365.515
C 394.9 363.592 401.72 364.918 407.545 364.994
C 409.183 365.015 412.225 364.181 413.445 365.689 Z"
opacity="0.996" fill="rgb(200,203,213)" fill-rule="evenodd" />
<path d="
M 425.493 357.605
C 425.602 355.638 426.152 353.732 426.803 351.886
C 427.99 348.522 430.261 345.082 433.377 343.237
C 436.7 341.268 441.003 341.156 444.763 341.161
C 449.457 341.168 454.148 341.244 458.842 341.178
C 465.299 341.086 472.827 340.064 478.445 343.906
C 486.336 349.302 485.338 359.162 485.306 367.494
C 485.29 371.519 485.551 375.604 485.298 379.621
C 485.191 381.327 484.752 382.959 484.146 384.55
C 480.499 394.115 471.079 394.329 462.319 394.257
C 458.428 394.225 454.54 394.229 450.649 394.261
C 444.552 394.311 437.621 395.107 432.302 391.466
C 424.684 386.252 425.742 377.016 425.738 369.001
C 425.736 365.2 425.281 361.405 425.493 357.605 Z
M 460.491 343.752
C 459.831 343.163 458.883 343.463 458.07 343.424
C 456.545 343.352 455.086 342.903 453.553 342.864
C 448.983 342.747 443.703 341.961 439.468 343.377
C 437.776 343.943 436.037 343.5 434.354 344.386
C 433.124 344.984 433.013 345.913 432.12 346.626
C 431.005 347.516 430.347 347.999 429.654 349.374
C 429.282 350.11 428.652 351.853 429.729 352.393
C 427.36 359.708 427.798 367.353 427.748 374.991
C 427.733 377.202 427.117 379.9 427.404 382.033
C 427.646 383.838 429.123 386.117 430.249 387.527
C 432.623 390.498 436.601 392.037 440.302 392.393
C 448.075 393.142 456.199 392.404 464.003 392.354
C 469.555 392.319 475.43 392.447 479.82 388.418
C 482.764 385.716 483.711 381.392 483.782 377.555
C 483.854 373.703 483.588 369.846 483.535 365.996
C 483.433 358.635 484.448 349.916 477.757 344.885
C 476.194 343.709 474.01 342.742 472.014 342.944
C 470.834 343.063 469.816 343.691 468.563 343.79
C 465.888 343.999 463.172 343.767 460.491 343.752 Z"
opacity="1" fill="rgb(104,107,106)" fill-rule="evenodd" />
<path d="
M 429.729 352.393
C 431.337 348.614 434.548 345.244 438.493 343.887
C 439.613 343.502 440.804 343.654 441.964 343.578
C 445.128 343.369 447.805 343.418 450.908 343.698
C 454.091 343.986 457.301 343.756 460.491 343.752
C 463.172 343.767 465.888 343.999 468.563 343.79
C 469.816 343.691 470.834 343.063 472.014 342.944
C 474.01 342.742 476.194 343.709 477.757 344.885
C 484.448 349.916 483.433 358.635 483.535 365.996
C 483.588 369.846 483.854 373.703 483.782 377.555
C 483.711 381.392 482.764 385.716 479.82 388.418
C 475.43 392.447 469.555 392.319 464.003 392.354
C 456.199 392.404 448.075 393.142 440.302 392.393
C 436.601 392.037 432.623 390.498 430.249 387.527
C 429.123 386.117 427.646 383.838 427.404 382.033
C 427.117 379.9 427.733 377.202 427.748 374.991
C 427.798 367.353 427.36 359.708 429.729 352.393 Z
M 440.384 386.036
C 440.968 386.908 442.051 386.723 443.005 386.736
C 445.003 386.764 446.999 386.717 448.997 386.709
C 455.17 386.687 461.337 386.721 467.51 386.74
C 470.583 386.75 473.912 386.551 475.769 383.726
C 478.338 379.818 477.513 375.351 477.284 371.018
C 477.108 367.676 477.59 364.324 477.221 360.988
C 477.045 359.404 476.067 358.779 476.036 357.063
C 475.752 354.23 475.132 351.683 472.382 350.259
C 469.929 348.989 466.65 349.487 463.992 349.538
C 458.831 349.636 453.661 349.6 448.498 349.63
C 445.039 349.65 440.077 348.637 437.107 350.864
C 433.087 353.879 433.463 359.251 433.628 363.7
C 433.73 366.461 433.717 369.236 433.694 371.998
C 433.662 375.829 433.407 380.111 436.287 383.048
C 437.446 384.23 439.069 385.085 440.384 386.036 Z"
opacity="1" fill="rgb(127,129,131)" fill-rule="evenodd" />
<path d="
M 460.491 343.752
C 457.301 343.756 454.091 343.986 450.908 343.698
C 447.805 343.418 445.128 343.369 441.964 343.578
C 440.804 343.654 439.613 343.502 438.493 343.887
C 434.548 345.244 431.337 348.614 429.729 352.393
C 428.652 351.853 429.282 350.11 429.654 349.374
C 430.347 347.999 431.005 347.516 432.12 346.626
C 433.013 345.913 433.124 344.984 434.354 344.386
C 436.037 343.5 437.776 343.943 439.468 343.377
C 443.703 341.961 448.983 342.747 453.553 342.864
C 455.086 342.903 456.545 343.352 458.07 343.424
C 458.883 343.463 459.831 343.163 460.491 343.752 Z"
opacity="0.996" fill="rgb(207,204,209)" fill-rule="evenodd" />
<path d="
M 476.036 357.063
C 475.772 356.801 475.596 356.656 475.237 356.55
C 473.667 349.477 466.091 351.284 460.5 351.291
C 454.998 351.297 449.497 351.189 443.995 351.197
C 441.492 351.201 438.548 351.247 436.939 353.484
C 435.035 356.133 435.244 359.397 435.247 362.485
C 435.249 364.131 435.254 365.776 435.279 367.422
C 435.374 373.548 433.951 383.689 442.519 384.191
C 443.229 386.35 441.858 385.884 440.384 386.036
C 439.069 385.085 437.446 384.23 436.287 383.048
C 433.407 380.111 433.662 375.829 433.694 371.998
C 433.717 369.236 433.73 366.461 433.628 363.7
C 433.463 359.251 433.087 353.879 437.107 350.864
C 440.077 348.637 445.039 349.65 448.498 349.63
C 453.661 349.6 458.831 349.636 463.992 349.538
C 466.65 349.487 469.929 348.989 472.382 350.259
C 475.132 351.683 475.752 354.23 476.036 357.063 Z"
opacity="1" fill="rgb(65,73,71)" fill-rule="evenodd" />
<path d="
M 440.384 386.036
C 441.858 385.884 443.229 386.35 442.519 384.191
C 449.824 384.475 457.19 384.138 464.501 384.129
C 467.369 384.125 471.17 384.806 473.483 382.728
C 475.628 380.8 475.435 377.57 475.46 374.943
C 475.519 368.826 475.97 362.637 475.237 356.55
C 475.596 356.656 475.772 356.801 476.036 357.063
C 476.067 358.779 477.045 359.404 477.221 360.988
C 477.59 364.324 477.108 367.676 477.284 371.018
C 477.513 375.351 478.338 379.818 475.769 383.726
C 473.912 386.551 470.583 386.75 467.51 386.74
C 461.337 386.721 455.17 386.687 448.997 386.709
C 446.999 386.717 445.003 386.764 443.005 386.736
C 442.051 386.723 440.968 386.908 440.384 386.036 Z"
opacity="0.996" fill="rgb(158,158,164)" fill-rule="evenodd" />
<path d="
M 491.997 373.991
C 493.609 375.295 493.364 376.582 493.396 378.516
C 493.448 381.685 493.369 384.853 493.406 388.022
C 493.421 389.321 492.9 391.372 493.341 392.578
C 493.5 393.014 494.145 392.763 494.488 392.841
C 496.49 392.781 498.46 392.703 500.455 392.899
C 500.141 391.6 500.723 390.532 500.602 389.346
C 500.172 385.135 499.946 380.518 500.257 376.262
C 502.183 374.751 506.986 375.903 509.333 375.93
C 512.439 375.966 515.54 375.779 518.648 375.877
C 519.984 375.919 521.675 375.791 522.911 376.382
C 524.3 377.046 525.392 378.754 526.451 379.835
C 528.89 382.325 531.389 384.76 533.855 387.223
C 535.269 388.635 537.238 391.52 539.198 392.103
C 540.853 392.595 543.017 392.201 544.719 392.107
C 545.477 392.065 548.874 393.423 548.61 392.171
C 548.397 391.16 546.701 390.594 546.107 389.743
C 542.906 385.152 537.258 381.873 534.944 376.718
C 538.3 374.674 542.134 375.092 544.9 371.809
C 550.949 364.629 549.606 348.597 540.828 344.015
C 536.509 341.76 532.873 343.308 528.465 343.601
C 521.285 344.079 513.936 344.26 506.742 344.137
C 503.958 344.09 501.178 344.036 498.393 344.099
C 497.271 344.125 495.899 343.964 494.893 344.486
C 494.518 345.682 493.748 346.706 493.425 347.913
C 493.293 348.406 493.615 349.532 493.489 349.756
C 492.999 350.433 492.684 350.471 491.886 350.578
C 491.6 347.55 491.753 344.322 491.781 341.276
C 495.444 340.791 499.308 341.124 503.001 341.13
C 509.668 341.142 516.338 341.175 523.005 341.123
C 528.247 341.082 534.93 340.042 539.895 342.051
C 546.962 344.911 549.539 351.478 549.925 358.574
C 550.16 362.888 549.829 367.343 547.574 371.194
C 546.118 373.683 543.929 375.5 541.289 376.631
C 540.055 377.159 538.263 377.314 537.291 378.238
C 540.148 382.483 544.867 386.202 548.468 389.842
C 549.515 390.901 551.56 392.581 552.205 393.875
C 551.534 394.244 550.767 393.844 550.061 393.821
C 548.83 393.781 547.59 393.88 546.357 393.87
C 544.405 393.855 542.451 393.909 540.499 393.928
C 539.77 393.934 538.875 394.128 538.197 393.777
C 536.454 392.872 534.897 390.507 533.519 389.107
C 529.915 385.448 526.404 381.433 522.585 378.026
C 520.853 377.197 518.142 377.601 516.249 377.607
C 511.624 377.62 506.229 376.849 501.714 377.79
C 501.738 383.165 501.174 388.935 501.729 394.268
C 499.434 394.081 497.067 394.121 494.767 394.218
C 494.047 394.248 492.485 394.528 491.904 394.045
C 492.15 387.373 491.85 380.666 491.997 373.991 Z"
opacity="0.996" fill="rgb(91,92,94)" fill-rule="evenodd" />
<path d="
M 491.886 350.578
C 492.684 350.471 492.999 350.433 493.489 349.756
C 502.804 349.39 512.165 349.688 521.489 349.574
C 525.983 349.519 531.714 348.569 536.044 349.905
C 538.865 350.775 540.416 353.949 541.309 356.533
C 541.498 358.98 541.898 362.166 540.97 364.495
C 540.709 365.149 539.461 367.582 538.663 366.254
C 541.1 362.114 541.293 352.783 535.296 351.326
C 532.129 350.556 528.24 351.218 524.992 351.23
C 517.995 351.256 510.995 351.254 503.998 351.184
C 500.857 351.152 497.717 351.088 494.576 351.171
C 493.811 351.191 491.996 351.452 491.886 350.578 Z"
opacity="1" fill="rgb(87,94,89)" fill-rule="evenodd" />
<path d="
M 494.514 368.178
C 493.298 369.25 494.275 370.507 495.455 370.633
C 494.215 371.288 494.604 374.053 494.505 375.413
C 494.189 379.718 494.439 384.094 494.425 388.44
C 494.422 389.392 494.277 390.383 494.347 391.33
C 494.383 391.813 494.812 392.423 494.488 392.841
C 494.145 392.763 493.5 393.014 493.341 392.578
C 492.9 391.372 493.421 389.321 493.406 388.022
C 493.369 384.853 493.448 381.685 493.396 378.516
C 493.364 376.582 493.609 375.295 491.997 373.991
C 491.859 372.107 491.891 370.217 491.942 368.33
C 492.519 367.93 493.801 368.129 494.514 368.178 Z"
opacity="1" fill="rgb(145,135,150)" fill-rule="evenodd" />
<path d="
M 494.488 392.841
C 494.812 392.423 494.383 391.813 494.347 391.33
C 494.277 390.383 494.422 389.392 494.425 388.44
C 494.439 384.094 494.189 379.718 494.505 375.413
C 494.604 374.053 494.215 371.288 495.455 370.633
C 504.097 370.198 512.798 370.035 521.482 370.374
C 526.657 370.576 532.378 371.512 537.469 370.225
C 541.46 369.216 542.784 364.2 542.675 360.623
C 542.638 359.381 542.826 356.804 541.309 356.533
C 540.416 353.949 538.865 350.775 536.044 349.905
C 531.714 348.569 525.983 349.519 521.489 349.574
C 512.165 349.688 502.804 349.39 493.489 349.756
C 493.615 349.532 493.293 348.406 493.425 347.913
C 493.748 346.706 494.518 345.682 494.893 344.486
C 495.899 343.964 497.271 344.125 498.393 344.099
C 501.178 344.036 503.958 344.09 506.742 344.137
C 513.936 344.26 521.285 344.079 528.465 343.601
C 532.873 343.308 536.509 341.76 540.828 344.015
C 549.606 348.597 550.949 364.629 544.9 371.809
C 542.134 375.092 538.3 374.674 534.944 376.718
C 537.258 381.873 542.906 385.152 546.107 389.743
C 546.701 390.594 548.397 391.16 548.61 392.171
C 548.874 393.423 545.477 392.065 544.719 392.107
C 543.017 392.201 540.853 392.595 539.198 392.103
C 537.238 391.52 535.269 388.635 533.855 387.223
C 531.389 384.76 528.89 382.325 526.451 379.835
C 525.392 378.754 524.3 377.046 522.911 376.382
C 521.675 375.791 519.984 375.919 518.648 375.877
C 515.54 375.779 512.439 375.966 509.333 375.93
C 506.986 375.903 502.183 374.751 500.257 376.262
C 499.946 380.518 500.172 385.135 500.602 389.346
C 500.723 390.532 500.141 391.6 500.455 392.899
C 498.46 392.703 496.49 392.781 494.488 392.841 Z"
opacity="1" fill="rgb(111,112,115)" fill-rule="evenodd" />
<path d="
M 494.514 368.178
C 504.119 368.226 513.727 367.892 523.327 367.971
C 528.444 368.014 534.166 368.917 538.663 366.254
C 539.461 367.582 540.709 365.149 540.97 364.495
C 541.898 362.166 541.498 358.98 541.309 356.533
C 542.826 356.804 542.638 359.381 542.675 360.623
C 542.784 364.2 541.46 369.216 537.469 370.225
C 532.378 371.512 526.657 370.576 521.482 370.374
C 512.798 370.035 504.097 370.198 495.455 370.633
C 494.275 370.507 493.298 369.25 494.514 368.178 Z"
opacity="1" fill="rgb(181,185,189)" fill-rule="evenodd" />
<path d="
M 611.016 341.206
C 610.765 341.961 610.754 342.795 610.369 343.497
C 610.391 343.176 610.639 342.335 610.384 342.532
C 610.162 342.704 610.191 343.12 609.942 343.251
C 609.61 343.425 609.352 342.792 608.987 342.888
C 607.886 343.176 607.202 343.758 605.988 343.805
C 601.599 343.976 597.01 344.086 592.626 343.957
C 588.61 343.838 584.59 343.896 580.572 343.823
C 577.292 343.763 573.849 343.339 570.596 343.925
C 565.047 344.925 560.858 348.834 559.337 354.217
C 558.292 357.917 558.353 361.682 558.265 365.493
C 557.668 366.774 557.966 368.097 557.815 369.453
C 557.46 372.65 557.368 375.818 557.724 379.012
C 556.623 384.631 561.813 389.929 566.714 391.633
C 570.342 392.895 574.251 392.454 578.004 392.385
C 583.505 392.284 589.008 392.248 594.51 392.223
C 598.759 392.205 603.534 392.581 607.391 390.484
C 610.258 388.926 611.189 385.244 611.306 382.227
C 611.451 378.486 611.352 374.747 611.522 371.003
C 611.606 369.153 611.268 367.281 611.654 365.457
C 611.78 364.467 612.234 363.63 612.554 362.701
C 613.341 362.708 613.156 363.668 613.176 364.387
C 613.22 365.916 613.167 367.457 613.172 368.987
C 613.193 374.942 614.574 383.263 611.33 388.577
C 607.902 394.192 601.958 393.944 596.143 394.081
C 591.31 394.195 586.472 394.119 581.638 394.181
C 572.869 394.294 562.806 394.968 557.857 386.153
C 554.94 380.958 555.701 375.221 555.775 369.493
C 555.865 362.454 554.357 354.796 558.308 348.514
C 562.603 341.685 569.882 341.067 577.216 341.062
C 588.448 341.053 599.8 340.68 611.016 341.206 Z"
opacity="0.996" fill="rgb(101,104,103)" fill-rule="evenodd" />
<path d="
M 558.265 365.493
C 558.214 368.495 558.296 371.497 558.244 374.498
C 558.219 375.929 558.397 377.712 557.724 379.012
C 557.368 375.818 557.46 372.65 557.815 369.453
C 557.966 368.097 557.668 366.774 558.265 365.493 Z"
opacity="0.996" fill="rgb(144,134,142)" fill-rule="evenodd" />
<path d="
M 557.724 379.012
C 558.397 377.712 558.219 375.929 558.244 374.498
C 558.296 371.497 558.214 368.495 558.265 365.493
C 558.353 361.682 558.292 357.917 559.337 354.217
C 560.858 348.834 565.047 344.925 570.596 343.925
C 573.849 343.339 577.292 343.763 580.572 343.823
C 584.59 343.896 588.61 343.838 592.626 343.957
C 597.01 344.086 601.599 343.976 605.988 343.805
C 607.202 343.758 607.886 343.176 608.987 342.888
C 609.352 342.792 609.61 343.425 609.942 343.251
C 610.191 343.12 610.162 342.704 610.384 342.532
C 610.639 342.335 610.391 343.176 610.369 343.497
C 610.289 345.63 610.156 347.786 610.704 349.86
C 600.791 348.888 590.457 349.458 580.486 349.55
C 576.59 349.586 571.357 348.591 567.812 350.535
C 563.127 353.103 563.969 358.584 564.095 362.986
C 564.195 366.518 564.149 370.04 564.125 373.572
C 564.11 375.903 564.014 378.425 565.136 380.545
C 566.363 382.861 568.864 384.478 570.896 386.008
C 571.97 387.659 576.783 386.729 578.492 386.665
C 583.853 386.464 589.122 386.339 594.492 386.406
C 597.31 386.442 600.352 387.19 603.08 386.29
C 603.875 385.761 606.432 382.499 604.962 381.511
C 604.559 381.24 604.053 381.168 603.603 380.982
C 603.286 378.287 602.807 375.106 603.006 372.408
C 603.839 372.05 603.914 371.648 603.57 370.806
C 598.649 369.876 592.998 370.703 588.003 370.756
C 586.992 370.766 583.554 371.438 582.902 370.797
C 582.807 369.795 582.848 368.96 583.122 367.997
C 583.253 367.013 583.437 366.173 583.958 365.316
C 585.751 365.024 587.671 365.232 589.488 365.188
C 594.491 365.069 599.489 365.27 604.49 365.346
C 606.387 365.375 608.392 365.178 610.27 365.319
C 610.78 365.357 611.208 365.758 611.654 365.457
C 611.268 367.281 611.606 369.153 611.522 371.003
C 611.352 374.747 611.451 378.486 611.306 382.227
C 611.189 385.244 610.258 388.926 607.391 390.484
C 603.534 392.581 598.759 392.205 594.51 392.223
C 589.008 392.248 583.505 392.284 578.004 392.385
C 574.251 392.454 570.342 392.895 566.714 391.633
C 561.813 389.929 556.623 384.631 557.724 379.012 Z
M 604.538 377.145
C 604.57 377.722 604.499 378.298 604.564 378.886
C 604.608 379.283 604.633 379.546 604.755 379.926
C 605.505 382.258 605.863 376.821 605.125 376.192
C 604.892 375.994 604.529 376.993 604.538 377.145 Z"
opacity="1" fill="rgb(107,109,112)" fill-rule="evenodd" />
<path d="
M 610.369 343.497
C 610.754 342.795 610.765 341.961 611.016 341.206
C 611.228 341.184 611.982 341.084 612.135 341.183
C 612.414 341.364 612.232 343.185 612.244 343.502
C 612.339 346.064 612.354 348.641 612.231 351.199
C 602.005 351.338 591.73 351.261 581.493 351.181
C 577.647 351.151 571.788 350.015 568.421 352.36
C 564.839 354.854 565.704 359.709 565.751 363.473
C 565.807 367.994 565.279 372.61 565.747 377.114
C 566.021 379.746 567.344 382.422 569.868 383.535
C 570.966 384.019 572.332 384.069 573.514 384.109
C 573.37 384.591 573.246 385.434 572.848 385.777
C 572.351 386.206 571.49 385.406 570.896 386.008
C 568.864 384.478 566.363 382.861 565.136 380.545
C 564.014 378.425 564.11 375.903 564.125 373.572
C 564.149 370.04 564.195 366.518 564.095 362.986
C 563.969 358.584 563.127 353.103 567.812 350.535
C 571.357 348.591 576.59 349.586 580.486 349.55
C 590.457 349.458 600.791 348.888 610.704 349.86
C 610.156 347.786 610.289 345.63 610.369 343.497 Z"
opacity="1" fill="rgb(55,62,61)" fill-rule="evenodd" />
<path d="
M 573.514 384.109
C 580.257 384.138 587.022 383.708 593.757 383.895
C 595.941 383.956 598.114 384.066 600.299 384.089
C 601.09 384.098 602.246 384.309 602.969 383.957
C 603.509 383.104 603.543 381.964 603.603 380.982
C 604.053 381.168 604.559 381.24 604.962 381.511
C 606.432 382.499 603.875 385.761 603.08 386.29
C 600.352 387.19 597.31 386.442 594.492 386.406
C 589.122 386.339 583.853 386.464 578.492 386.665
C 576.783 386.729 571.97 387.659 570.896 386.008
C 571.49 385.406 572.351 386.206 572.848 385.777
C 573.246 385.434 573.37 384.591 573.514 384.109 Z"
opacity="1" fill="rgb(146,149,157)" fill-rule="evenodd" />
<path d="
M 612.554 362.701
C 612.234 363.63 611.78 364.467 611.654 365.457
C 611.208 365.758 610.78 365.357 610.27 365.319
C 608.392 365.178 606.387 365.375 604.49 365.346
C 599.489 365.27 594.491 365.069 589.488 365.188
C 587.671 365.232 585.751 365.024 583.958 365.316
C 583.437 366.173 583.253 367.013 583.122 367.997
C 582.536 368.098 582.921 368.054 581.961 368.005
C 581.972 366.255 581.865 364.513 581.872 362.762
C 592.07 362.228 602.361 363.146 612.554 362.701 Z"
opacity="1" fill="rgb(149,159,159)" fill-rule="evenodd" />
<path d="
M 581.961 368.005
C 582.921 368.054 582.536 368.098 583.122 367.997
C 582.848 368.96 582.807 369.795 582.902 370.797
C 583.554 371.438 586.992 370.766 588.003 370.756
C 592.998 370.703 598.649 369.876 603.57 370.806
C 603.914 371.648 603.839 372.05 603.006 372.408
C 601.068 371.886 598.527 372.261 596.516 372.264
C 591.763 372.271 586.997 372.366 582.251 372.224
C 581.603 371.163 581.897 369.221 581.961 368.005 Z"
opacity="0.996" fill="rgb(31,43,38)" fill-rule="evenodd" />
<path d="
M 604.538 377.145
C 604.529 376.993 604.892 375.994 605.125 376.192
C 605.863 376.821 605.505 382.258 604.755 379.926
C 604.633 379.546 604.608 379.283 604.564 378.886
C 604.499 378.298 604.57 377.722 604.538 377.145 Z"
opacity="1" fill="rgb(146,149,157)" fill-rule="evenodd" />
<path d="
M 672.514 341.195
C 672.257 341.97 671.99 342.675 671.831 343.48
C 671.058 343.053 669.79 343.6 668.955 343.72
C 667.251 343.964 665.456 343.832 663.741 343.796
C 655.484 343.624 647.269 343.973 638.996 343.615
C 637.514 342.646 633.711 342.354 632.439 343.798
C 631.282 344.679 629.665 345.027 628.427 345.844
C 626.463 347.139 625.023 348.964 623.888 351
C 622.14 354.134 622.113 357.514 621.972 360.998
C 621.781 365.693 622.051 370.355 622.001 375.052
C 621.966 378.36 620.805 381.213 622.108 384.443
C 623.354 387.533 625.916 389.654 628.862 391.022
C 633.169 393.02 638.418 392.238 643.017 392.258
C 652.77 392.301 662.713 391.664 672.436 392.319
C 672.479 390.249 672.251 387.918 672.453 385.903
C 672.791 385.691 673.42 385.08 673.73 385.487
C 673.936 388.028 674.396 391.542 673.686 394.014
C 670.297 394.467 666.44 393.911 663.001 393.917
C 655.819 393.93 648.66 394.074 641.48 394.149
C 636.314 394.203 630.808 394.569 626.243 391.685
C 617.216 385.983 619.974 374.877 619.613 365.943
C 619.43 361.436 618.655 356.477 620.064 352.096
C 621.23 348.47 623.487 345.531 626.662 343.444
C 631.257 340.424 637.267 341.132 642.499 341.166
C 652.487 341.229 662.536 340.773 672.514 341.195 Z"
opacity="1" fill="rgb(113,114,116)" fill-rule="evenodd" />
<path d="
M 632.439 343.798
C 634.608 343.542 636.815 343.535 638.996 343.615
C 647.269 343.973 655.484 343.624 663.741 343.796
C 665.456 343.832 667.251 343.964 668.955 343.72
C 669.79 343.6 671.058 343.053 671.831 343.48
C 671.852 345.505 672.017 347.546 672.03 349.557
C 671.249 349.758 670.309 349.41 669.504 349.424
C 667.338 349.46 665.171 349.404 663.005 349.407
C 655.843 349.418 648.639 349.203 641.484 349.509
C 638.83 349.622 636.063 349.208 633.439 349.707
C 629.285 350.496 627.874 354.254 627.788 358.051
C 627.752 359.642 627.281 363.993 629.948 362.874
C 632.035 362.468 634.363 362.837 636.491 362.803
C 641.492 362.723 646.497 362.776 651.498 362.768
C 652.977 363.314 656.588 362.088 657.25 363.746
C 657.696 364.862 653.261 364.442 652.453 364.443
C 646.822 364.444 641.163 364.063 635.535 364.274
C 633.95 364.333 629.94 363.436 629.368 365.149
C 629.974 365.658 631.233 365.351 632.001 365.359
C 634.499 365.387 637.001 365.285 639.501 365.303
C 646.165 365.352 652.83 365.222 659.494 365.304
C 663.126 365.349 666.813 365.988 670.412 365.298
C 671.207 365.277 671.234 365.498 671.73 365.989
C 671.632 367.411 672.271 369.499 671.779 370.805
C 667.94 370.342 663.867 370.688 660.007 370.754
C 654.678 370.845 649.338 370.812 644.009 370.769
C 639.291 370.731 633.382 369.585 628.811 370.829
C 628.157 371.38 628.116 372.388 627.919 373.187
C 627.348 375.509 627.481 379.047 628.636 381.184
C 629.319 382.447 630.971 383.728 632.312 384.192
C 633.033 384.441 633.055 383.746 632.529 383.445
C 633.217 383.74 633.802 384.02 634.555 384.083
C 632.653 385.422 634.719 386.494 635.995 386.611
C 639.415 386.923 642.91 386.687 646.341 386.69
C 651.532 386.693 656.74 386.357 661.923 386.432
C 665.282 386.481 669.211 386.992 672.453 385.903
C 672.251 387.918 672.479 390.249 672.436 392.319
C 662.713 391.664 652.77 392.301 643.017 392.258
C 638.418 392.238 633.169 393.02 628.862 391.022
C 625.916 389.654 623.354 387.533 622.108 384.443
C 620.805 381.213 621.966 378.36 622.001 375.052
C 622.051 370.355 621.781 365.693 621.972 360.998
C 622.113 357.514 622.14 354.134 623.888 351
C 625.023 348.964 626.463 347.139 628.427 345.844
C 629.665 345.027 631.282 344.679 632.439 343.798 Z"
opacity="1" fill="rgb(115,117,120)" fill-rule="evenodd" />
<path d="
M 671.831 343.48
C 671.99 342.675 672.257 341.97 672.514 341.195
C 672.895 341.177 673.311 340.976 673.657 341.138
C 674.016 341.305 673.815 343.163 673.817 343.494
C 673.829 346.066 673.69 348.682 673.794 351.245
C 665.399 350.873 656.899 351.236 648.491 351.238
C 643.732 351.239 638.361 350.471 633.68 351.403
C 630.176 352.1 629.357 356.079 629.362 359.127
C 629.363 359.87 629.115 362.685 629.948 362.874
C 627.281 363.993 627.752 359.642 627.788 358.051
C 627.874 354.254 629.285 350.496 633.439 349.707
C 636.063 349.208 638.83 349.622 641.484 349.509
C 648.639 349.203 655.843 349.418 663.005 349.407
C 665.171 349.404 667.338 349.46 669.504 349.424
C 670.309 349.41 671.249 349.758 672.03 349.557
C 672.017 347.546 671.852 345.505 671.831 343.48 Z"
opacity="1" fill="rgb(62,67,64)" fill-rule="evenodd" />
<path d="
M 671.73 365.989
C 671.746 365.028 672.059 364.387 670.977 364.341
C 670.428 364.165 670.853 363.199 671.004 362.696
C 671.726 362.696 672.447 362.685 673.169 362.697
C 673.43 365.871 673.469 369.461 673.174 372.631
C 662.542 371.895 651.651 372.629 640.991 372.588
C 638.285 372.577 635.583 372.503 632.879 372.403
C 631.88 372.365 630.543 372.144 629.714 372.774
C 629.125 376.36 629.116 381.232 632.529 383.445
C 633.055 383.746 633.033 384.441 632.312 384.192
C 630.971 383.728 629.319 382.447 628.636 381.184
C 627.481 379.047 627.348 375.509 627.919 373.187
C 628.116 372.388 628.157 371.38 628.811 370.829
C 633.382 369.585 639.291 370.731 644.009 370.769
C 649.338 370.812 654.678 370.845 660.007 370.754
C 663.867 370.688 667.94 370.342 671.779 370.805
C 672.271 369.499 671.632 367.411 671.73 365.989 Z"
opacity="1" fill="rgb(41,48,52)" fill-rule="evenodd" />
<path d="
M 651.498 362.768
C 657.996 362.765 664.508 362.546 671.004 362.696
C 670.853 363.199 670.428 364.165 670.977 364.341
C 670.816 364.687 670.614 364.976 670.412 365.298
C 666.813 365.988 663.126 365.349 659.494 365.304
C 652.83 365.222 646.165 365.352 639.501 365.303
C 637.001 365.285 634.499 365.387 632.001 365.359
C 631.233 365.351 629.974 365.658 629.368 365.149
C 629.94 363.436 633.95 364.333 635.535 364.274
C 641.163 364.063 646.822 364.444 652.453 364.443
C 653.261 364.442 657.696 364.862 657.25 363.746
C 656.588 362.088 652.977 363.314 651.498 362.768 Z"
opacity="1" fill="rgb(169,172,175)" fill-rule="evenodd" />
<path d="
M 638.996 343.615
C 636.815 343.535 634.608 343.542 632.439 343.798
C 633.711 342.354 637.514 342.646 638.996 343.615 Z"
opacity="0.996" fill="rgb(178,181,190)" fill-rule="evenodd" />
<path d="
M 634.555 384.083
C 644.508 384.473 654.539 384.179 664.501 384.189
C 666.668 384.191 668.833 384.161 671 384.209
C 671.702 384.224 672.909 383.993 673.556 384.206
C 673.921 384.326 673.735 385.248 673.73 385.487
C 673.42 385.08 672.791 385.691 672.453 385.903
C 669.211 386.992 665.282 386.481 661.923 386.432
C 656.74 386.357 651.532 386.693 646.341 386.69
C 642.91 386.687 639.415 386.923 635.995 386.611
C 634.719 386.494 632.653 385.422 634.555 384.083 Z"
opacity="0.996" fill="rgb(133,135,141)" fill-rule="evenodd" />
<path d="
M 670.977 364.341
C 672.059 364.387 671.746 365.028 671.73 365.989
C 671.234 365.498 671.207 365.277 670.412 365.298
C 670.614 364.976 670.816 364.687 670.977 364.341 Z"
opacity="0.996" fill="rgb(116,114,129)" fill-rule="evenodd" />

</svg>